<svg width="36" height="36" viewBox="0 0 36 36" fill="none" xmlns="http://www.w3.org/2000/svg">
<g clip-path="url(#clip0_470_975)">
<path fill-rule="evenodd" clip-rule="evenodd" d="M27.4286 32.5714H3.42857V8.57143H18.8571V5.14286H3.42857C1.54286 5.14286 0 6.68571 0 8.57143V32.5714C0 34.4571 1.54286 36 3.42857 36H27.4286C29.3143 36 30.8571 34.4571 30.8571 32.5714V17.1429H27.4286V32.5714ZM14.0743 27.1371L10.7143 23.0914L6 29.1429H24.8571L18.7886 21.0686L14.0743 27.1371ZM30.8571 5.14286V0H27.4286V5.14286H22.2857C22.3029 5.16 22.2857 8.57143 22.2857 8.57143H27.4286V13.6971C27.4457 13.7143 30.8571 13.6971 30.8571 13.6971V8.57143H36V5.14286H30.8571Z" fill="#939393" fill-opacity="0.2"/>
</g>
<defs>
<clipPath id="clip0_470_975">
<rect width="36" height="36" fill="white"/>
</clipPath>
</defs>
</svg>
