<svg width="28" height="28" viewBox="0 0 28 28" fill="none" xmlns="http://www.w3.org/2000/svg">
<circle cx="14" cy="14" r="14" fill="#2E95B4"/>
<path fill-rule="evenodd" clip-rule="evenodd" d="M12.6771 7.25C11.8248 7.25 11.0457 7.73151 10.6646 8.49377L10.3688 9.08541C10.2417 9.3395 9.98202 9.5 9.69795 9.5H8.75C7.50736 9.5 6.5 10.5074 6.5 11.75V18.5C6.5 19.7427 7.50736 20.75 8.75 20.75H19.25C20.4927 20.75 21.5 19.7427 21.5 18.5V11.75C21.5 10.5074 20.4927 9.5 19.25 9.5H18.3021C18.018 9.5 17.7583 9.3395 17.6312 9.08541L17.3354 8.49377C16.9543 7.73151 16.1751 7.25 15.3229 7.25H12.6771ZM13.25 13.25V11H14.75V13.25H17V14.75H14.75V17H13.25V14.75H11V13.25H13.25Z" fill="white"/>
</svg>
