<svg width="28" height="28" viewBox="0 0 28 28" fill="none" xmlns="http://www.w3.org/2000/svg">
<circle cx="14" cy="14" r="14" fill="#2E95B4"/>
<path d="M20.0661 12.3322C20.0614 12.3158 20.0563 12.2994 20.0516 12.283C20.0253 12.1921 19.9977 12.1016 19.9672 12.0121C19.9611 11.9938 19.955 11.975 19.9484 11.9568C19.9109 11.8489 19.8716 11.743 19.828 11.638C19.469 10.7659 18.9154 9.98725 18.2097 9.3616C17.5039 8.73596 16.6645 8.27982 15.7556 8.02799C14.8467 7.77616 13.8923 7.7353 12.9652 7.90853C12.038 8.08176 11.1628 8.4645 10.4061 9.02754L19.0709 17.6943C19.5244 17.0857 19.8618 16.3988 20.0661 15.6679H21.928C21.1588 19.2838 17.9408 22.0049 14.0998 22.0049C10.2589 22.0049 7.04 19.2838 6.27172 15.6679H8.13125C8.86157 18.2774 11.2592 20.1974 14.0989 20.1974C15.4303 20.1987 16.7263 19.769 17.7931 18.9725L9.125 10.3058C8.8185 10.7173 8.56436 11.1652 8.36844 11.6394C8.32532 11.7435 8.28547 11.8499 8.24844 11.9572C8.24188 11.9755 8.23578 11.9943 8.22922 12.013C8.19922 12.1021 8.17157 12.1921 8.14532 12.283C8.14063 12.2994 8.13547 12.3158 8.13078 12.3322H6.26938C6.27407 12.3107 6.27969 12.2896 6.28485 12.2685C6.30875 12.1583 6.33453 12.0486 6.36313 11.9404C6.36735 11.9258 6.3711 11.9108 6.37532 11.8963C6.39875 11.8096 6.42219 11.7238 6.44985 11.638C7.46141 8.37504 10.5069 5.9952 14.0989 5.9952C17.6909 5.9952 20.7373 8.37504 21.7475 11.638C21.7738 11.7233 21.7981 11.8086 21.8216 11.8949C21.8258 11.9099 21.83 11.9249 21.8338 11.9418C21.8628 12.05 21.8881 12.1597 21.9125 12.2699C21.9172 12.291 21.9228 12.3116 21.9275 12.3332H20.0661V12.3322Z" fill="white"/>
<path d="M9.45593 15.1255V12.8746H10.9339L13.1853 15.1255H9.45593Z" fill="white"/>
<path d="M15.0228 12.8746H22.1033V15.1255H17.2742L15.0228 12.8746Z" fill="white"/>
<path d="M23.3839 15.125H22.6456V12.875H23.3839C23.4481 12.8749 23.5117 12.8875 23.571 12.912C23.6303 12.9366 23.6842 12.9725 23.7296 13.0179C23.775 13.0633 23.811 13.1171 23.8356 13.1764C23.8602 13.2357 23.8728 13.2993 23.8728 13.3634V14.637C23.8728 14.7012 23.8601 14.7647 23.8355 14.8239C23.8109 14.8831 23.7748 14.937 23.7294 14.9823C23.684 15.0276 23.6301 15.0635 23.5709 15.088C23.5116 15.1125 23.4481 15.1251 23.3839 15.125Z" fill="white"/>
<path d="M8.91407 15.125H4.77642C4.69118 15.1251 4.60677 15.1083 4.52801 15.0758C4.44924 15.0432 4.37767 14.9954 4.31738 14.9352C4.25709 14.8749 4.20926 14.8034 4.17663 14.7246C4.14399 14.6459 4.1272 14.5615 4.1272 14.4762V13.5228C4.12745 13.3508 4.19597 13.186 4.31771 13.0645C4.43945 12.943 4.60444 12.8749 4.77642 12.875H8.91407V15.125Z" fill="white"/>
</svg>
