<svg width="22" height="22" viewBox="0 0 22 22" fill="none" xmlns="http://www.w3.org/2000/svg">
<circle cx="11" cy="11" r="11" fill="#0D1411"/>
<g clip-path="url(#clip0_336_627)">
<path d="M13.9028 12.0263C13.7648 12.0263 13.6197 12.0861 13.5226 12.1836C13.4294 12.277 13.3593 12.4302 13.3651 12.5639C13.3713 12.7031 13.4171 12.8469 13.5226 12.9442C13.6276 13.0405 13.7568 13.1015 13.9028 13.1015C14.0404 13.1015 14.185 13.0417 14.2828 12.9442C14.3761 12.851 14.4463 12.6979 14.4401 12.5639C14.434 12.4252 14.3884 12.2808 14.2828 12.1836C14.1775 12.0874 14.0483 12.0263 13.9028 12.0263Z" fill="white"/>
<path d="M13.9028 9.4978C13.7648 9.4978 13.6197 9.55794 13.5226 9.65525C13.4294 9.74863 13.3593 9.90154 13.3651 10.0356C13.3713 10.1743 13.4171 10.3186 13.5226 10.4156C13.6276 10.5121 13.7568 10.5729 13.9028 10.5729C14.0404 10.5729 14.185 10.5132 14.2828 10.4156C14.3761 10.3225 14.4463 10.1693 14.4401 10.0356C14.434 9.89655 14.3884 9.7521 14.2828 9.65525C14.1775 9.5587 14.0483 9.4978 13.9028 9.4978Z" fill="white"/>
<path d="M15.167 10.7625C15.029 10.7625 14.8843 10.8222 14.7867 10.9198C14.6936 11.0129 14.6235 11.1661 14.6294 11.2998C14.6354 11.4391 14.6814 11.5828 14.7867 11.68C14.8918 11.7762 15.0212 11.8373 15.167 11.8373C15.3047 11.8373 15.4494 11.7774 15.547 11.68C15.6401 11.5866 15.7105 11.4338 15.7043 11.2998C15.6981 11.1607 15.6526 11.0168 15.547 10.9198C15.4417 10.8233 15.3127 10.7625 15.167 10.7625Z" fill="white"/>
<path d="M12.6384 10.7625C12.5006 10.7625 12.3558 10.8222 12.258 10.9198C12.165 11.0129 12.0949 11.1661 12.1009 11.2998C12.1071 11.4391 12.1529 11.5828 12.258 11.68C12.3634 11.7762 12.4929 11.8373 12.6384 11.8373C12.776 11.8373 12.9211 11.7774 13.0185 11.68C13.1118 11.5866 13.182 11.4338 13.176 11.2998C13.1698 11.1607 13.124 11.0168 13.0185 10.9198C12.9134 10.8233 12.784 10.7625 12.6384 10.7625Z" fill="white"/>
<path d="M10.1747 10.7927C10.3353 10.7595 10.2803 10.7695 10.1628 10.7642C10.0671 10.7596 9.38626 10.7988 9.14329 10.8124C9.13166 10.3361 9.16203 9.76419 8.93069 9.36091C8.84109 9.20482 8.59525 9.19832 8.50731 9.36091C8.27462 9.79124 8.32887 10.3837 8.31572 10.8742C8.09255 10.8962 7.86983 10.9219 7.64771 10.9491C7.33267 10.9876 6.98363 10.9905 6.7387 11.2131C6.6491 11.2945 6.68249 11.4356 6.77497 11.4953C7.05873 11.6792 8.11053 11.6621 8.27236 11.6718C8.25045 12.0444 8.23292 12.4181 8.25105 12.7857C8.28052 13.3983 9.15916 13.3939 9.1992 12.7857C9.22186 12.4374 9.21083 12.0819 9.1921 11.7274C9.60052 11.762 10.0469 11.8401 10.4414 11.7595C11.0733 11.6298 10.8055 10.6632 10.1747 10.7927Z" fill="white"/>
<path d="M17.7719 7.83465C17.7194 7.40961 17.4288 7.35763 17.0684 7.35219C16.5677 7.34569 12.0684 7.32378 10.3198 7.31608C8.44325 7.30822 6.56676 7.30066 4.69026 7.2981C4.04461 7.29719 4.04356 8.30955 4.69026 8.30109C4.69116 8.30109 4.69222 8.30109 4.69358 8.30109C4.57195 10.4168 4.59643 12.5465 4.58071 14.664C4.57935 14.8884 4.7714 15.0753 4.99397 15.0771C8.5945 15.1045 12.1953 15.101 15.7962 15.101H17.3431C17.5807 15.101 17.778 14.9006 17.7803 14.6639C17.7892 13.5894 17.7901 12.5142 17.7898 11.4397C17.7895 10.6771 17.7859 9.91452 17.7862 9.15163C17.7862 8.72099 17.8251 8.26347 17.7719 7.83465ZM6.54092 14.2393L5.40435 14.2482C5.39211 12.2647 5.40239 10.2737 5.29224 8.29354C8.8754 8.24639 16.642 8.19472 16.9411 8.19623C16.9411 8.19623 16.9411 8.19668 16.9411 8.19698C16.946 8.46141 16.9191 13.2639 16.9104 14.2266C13.454 14.2255 9.997 14.2128 6.54092 14.2393Z" fill="white"/>
</g>
<defs>
<clipPath id="clip0_336_627">
<rect width="13.75" height="13.75" fill="white" transform="translate(4.125 4.125)"/>
</clipPath>
</defs>
</svg>
