<svg width="8" height="10" viewBox="0 0 8 10" fill="none" xmlns="http://www.w3.org/2000/svg">
<g clip-path="url(#clip0_308_343)">
<path d="M5.14286 0.625V1.25H2.85714V0.625C2.85714 0.279883 2.60179 0 2.28571 0C1.96964 0 1.71429 0.279883 1.71429 0.625V1.25H0.857142C0.383928 1.25 0 1.66973 0 2.1875V3.125H8V2.1875C8 1.66973 7.61625 1.25 7.14286 1.25H6.28571V0.625C6.28571 0.279883 6.03036 0 5.71429 0C5.39821 0 5.14286 0.279883 5.14286 0.625ZM8 3.75H0V9.0625C0 9.58008 0.383928 10 0.857142 10H7.14286C7.61625 10 8 9.58008 8 9.0625V3.75ZM6.85714 5.9375C6.85714 6.10938 6.72929 6.25 6.57143 6.25H6C5.84286 6.25 5.71429 6.10938 5.71429 5.9375V5.3125C5.71429 5.14062 5.84286 5 6 5H6.57143C6.72929 5 6.85714 5.14062 6.85714 5.3125V5.9375ZM4.57143 5.9375C4.57143 6.10938 4.44286 6.25 4.28571 6.25H3.71429C3.55714 6.25 3.42857 6.10938 3.42857 5.9375V5.3125C3.42857 5.14062 3.55714 5 3.71429 5H4.28571C4.44286 5 4.57143 5.14062 4.57143 5.3125V5.9375ZM2 5C2.15714 5 2.28571 5.14062 2.28571 5.3125V5.9375C2.28571 6.10938 2.15714 6.25 2 6.25H1.42857C1.27143 6.25 1.14286 6.10938 1.14286 5.9375V5.3125C1.14286 5.14062 1.27143 5 1.42857 5H2ZM6.85714 8.4375C6.85714 8.60938 6.72929 8.75 6.57143 8.75H6C5.84286 8.75 5.71429 8.60938 5.71429 8.4375V7.8125C5.71429 7.64062 5.84286 7.5 6 7.5H6.57143C6.72929 7.5 6.85714 7.64062 6.85714 7.8125V8.4375ZM4.28571 7.5C4.44286 7.5 4.57143 7.64062 4.57143 7.8125V8.4375C4.57143 8.60938 4.44286 8.75 4.28571 8.75H3.71429C3.55714 8.75 3.42857 8.60938 3.42857 8.4375V7.8125C3.42857 7.64062 3.55714 7.5 3.71429 7.5H4.28571ZM2.28571 8.4375C2.28571 8.60938 2.15714 8.75 2 8.75H1.42857C1.27143 8.75 1.14286 8.60938 1.14286 8.4375V7.8125C1.14286 7.64062 1.27143 7.5 1.42857 7.5H2C2.15714 7.5 2.28571 7.64062 2.28571 7.8125V8.4375Z" fill="#868686"/>
</g>
<defs>
<clipPath id="clip0_308_343">
<rect width="8" height="10" fill="white" transform="matrix(-1 0 0 1 8 0)"/>
</clipPath>
</defs>
</svg>
