<svg width="22" height="22" viewBox="0 0 22 22" fill="none" xmlns="http://www.w3.org/2000/svg">
<circle cx="11" cy="11" r="11" fill="#0D1411"/>
<g clip-path="url(#clip0_336_642)">
<path d="M11 4.98438C9.40456 4.98438 7.87446 5.61816 6.74631 6.74631C5.61816 7.87446 4.98438 9.40456 4.98438 11V14.8672C4.98438 14.9811 5.02965 15.0904 5.11023 15.171C5.19081 15.2516 5.3001 15.2969 5.41406 15.2969H7.99219C8.10615 15.2969 8.21544 15.2516 8.29602 15.171C8.3766 15.0904 8.42188 14.9811 8.42188 14.8672V11.4297C8.42188 11.3157 8.3766 11.2064 8.29602 11.1259C8.21544 11.0453 8.10615 11 7.99219 11H5.84375C5.84375 9.63248 6.387 8.32097 7.35398 7.35398C8.32097 6.387 9.63248 5.84375 11 5.84375C12.3675 5.84375 13.679 6.387 14.646 7.35398C15.613 8.32097 16.1562 9.63248 16.1562 11H14.0078C13.8939 11 13.7846 11.0453 13.704 11.1259C13.6234 11.2064 13.5781 11.3157 13.5781 11.4297V14.8672C13.5781 14.9811 13.6234 15.0904 13.704 15.171C13.7846 15.2516 13.8939 15.2969 14.0078 15.2969H16.1562V16.1562H11.4297V15.7266C11.4297 15.6126 11.3844 15.5033 11.3038 15.4227C11.2233 15.3421 11.114 15.2969 11 15.2969C10.886 15.2969 10.7767 15.3421 10.6962 15.4227C10.6156 15.5033 10.5703 15.6126 10.5703 15.7266V16.5859C10.5703 16.6999 10.6156 16.8092 10.6962 16.8898C10.7767 16.9704 10.886 17.0156 11 17.0156H16.5859C16.6999 17.0156 16.8092 16.9704 16.8898 16.8898C16.9704 16.8092 17.0156 16.6999 17.0156 16.5859V11C17.0156 9.40456 16.3818 7.87446 15.2537 6.74631C14.1255 5.61816 12.5954 4.98438 11 4.98438Z" fill="white"/>
</g>
<defs>
<clipPath id="clip0_336_642">
<rect width="13.75" height="13.75" fill="white" transform="translate(4.125 4.125)"/>
</clipPath>
</defs>
</svg>
