<svg width="28" height="28" viewBox="0 0 28 28" fill="none" xmlns="http://www.w3.org/2000/svg">
<circle cx="14" cy="14" r="14" fill="#2E95B4"/>
<path d="M20.1094 16.6562C20.1276 16.395 20.1812 16.1374 20.2687 15.8906C20.445 15.4765 20.4876 15.0176 20.3906 14.5781C20.2036 14.1571 19.893 13.8029 19.5 13.5625C19.2914 13.4236 19.104 13.2552 18.9437 13.0625C18.8067 12.8475 18.7014 12.6138 18.6312 12.3688C18.5269 11.9241 18.2879 11.5225 17.9469 11.2188C17.555 10.9869 17.1005 10.8831 16.6469 10.9219C16.4609 10.9222 16.2751 10.9107 16.0906 10.8875L18.2219 9.575C18.2676 9.54789 18.3057 9.50955 18.3325 9.46362C18.3593 9.41768 18.3739 9.36567 18.375 9.3125V4.9375C18.375 4.85462 18.3421 4.77513 18.2835 4.71653C18.2249 4.65792 18.1454 4.625 18.0625 4.625H9.93749C9.85461 4.625 9.77512 4.65792 9.71652 4.71653C9.65791 4.77513 9.62499 4.85462 9.62499 4.9375V9.3125C9.62521 9.3659 9.63911 9.41836 9.66537 9.46486C9.69163 9.51136 9.72937 9.55036 9.77499 9.57812L11.9062 10.8906C11.7217 10.9139 11.5359 10.9253 11.35 10.925C10.8963 10.8863 10.4419 10.99 10.05 11.2219C9.70823 11.5263 9.46915 11.9292 9.36561 12.375C9.2948 12.6189 9.18957 12.8514 9.05311 13.0656C8.89356 13.257 8.70727 13.4243 8.49999 13.5625C8.107 13.8029 7.7964 14.1571 7.60936 14.5781C7.51241 15.0176 7.55501 15.4765 7.73124 15.8906C7.8188 16.1374 7.87241 16.395 7.89061 16.6562C7.87383 16.9228 7.82019 17.1857 7.73124 17.4375C7.55501 17.8517 7.51241 18.3105 7.60936 18.75C7.79902 19.1652 8.10938 19.5137 8.49999 19.75C8.70859 19.8889 8.89595 20.0573 9.05624 20.25C9.19327 20.465 9.29852 20.6987 9.36874 20.9438C9.47307 21.3884 9.71206 21.79 10.0531 22.0938C10.4432 22.331 10.8978 22.4403 11.3531 22.4062C11.6121 22.3901 11.872 22.4112 12.125 22.4688C12.3495 22.5619 12.5599 22.686 12.75 22.8375C13.1023 23.1397 13.5383 23.3272 14 23.375C14.4616 23.3272 14.8977 23.1397 15.25 22.8375C15.4401 22.686 15.6505 22.5619 15.875 22.4688C16.124 22.4058 16.3808 22.3784 16.6375 22.3875C17.0926 22.4191 17.5464 22.31 17.9375 22.075C18.2785 21.7712 18.5175 21.3696 18.6219 20.925C18.6921 20.6799 18.7973 20.4462 18.9344 20.2312C19.0988 20.0445 19.2893 19.8825 19.5 19.75C19.893 19.5096 20.2036 19.1554 20.3906 18.7344C20.4876 18.2949 20.445 17.836 20.2687 17.4219C20.1812 17.1751 20.1276 16.9175 20.1094 16.6562ZM11.8125 10.1V5.25H16.1875V10.1L15.4062 10.5812L15.25 10.475C14.8977 10.1728 14.4616 9.98534 14 9.9375C13.5383 9.98534 13.1023 10.1728 12.75 10.475L12.6 10.5812L11.8125 10.1ZM14 20.875C13.1656 20.875 12.3499 20.6276 11.6562 20.164C10.9624 19.7004 10.4217 19.0416 10.1024 18.2707C9.78306 17.4998 9.69952 16.6516 9.8623 15.8332C10.0251 15.0149 10.4269 14.2631 11.0169 13.6731C11.6069 13.0831 12.3586 12.6813 13.1769 12.5186C13.9953 12.3558 14.8436 12.4393 15.6144 12.7586C16.3853 13.0779 17.0442 13.6187 17.5077 14.3124C17.9713 15.0062 18.2187 15.8219 18.2187 16.6562C18.2171 17.7746 17.7721 18.8467 16.9813 19.6375C16.1905 20.4283 15.1184 20.8733 14 20.875Z" fill="white"/>
<path d="M16.0189 17.2781C16.002 17.2952 15.9893 17.3159 15.9817 17.3386C15.9741 17.3614 15.9719 17.3856 15.9751 17.4094L16.0876 18.3469C16.1055 18.4851 16.086 18.6256 16.031 18.7537C15.976 18.8818 15.8877 18.9927 15.7751 19.075C15.6597 19.1604 15.5235 19.2134 15.3808 19.2288C15.238 19.2442 15.0937 19.2213 14.9626 19.1625L14.0845 18.7656C14.0599 18.7548 14.0333 18.7492 14.0064 18.7492C13.9795 18.7492 13.9529 18.7548 13.9283 18.7656L13.0501 19.1625C12.9191 19.2213 12.7748 19.2442 12.632 19.2288C12.4893 19.2134 12.3531 19.1604 12.2376 19.075C12.1251 18.9927 12.0368 18.8818 11.9818 18.7537C11.9268 18.6256 11.9072 18.4851 11.9251 18.3469L12.0376 17.4094C12.0409 17.3856 12.0387 17.3614 12.0311 17.3386C12.0235 17.3159 12.0108 17.2952 11.9939 17.2781L11.3376 16.5813C11.2404 16.4797 11.1726 16.3538 11.1412 16.2168C11.1098 16.0798 11.1162 15.9368 11.1595 15.8031C11.2052 15.665 11.2875 15.5418 11.3975 15.4467C11.5075 15.3515 11.6413 15.2878 11.7845 15.2625L12.722 15.0781C12.7471 15.0734 12.771 15.0635 12.792 15.049C12.813 15.0344 12.8307 15.0156 12.8439 14.9938L13.3158 14.1688C13.3869 14.0462 13.489 13.9444 13.6119 13.8737C13.7347 13.8029 13.874 13.7657 14.0158 13.7657C14.1575 13.7657 14.2968 13.8029 14.4196 13.8737C14.5425 13.9444 14.6446 14.0462 14.7158 14.1688L15.1876 14.9938C15.2009 15.0156 15.2186 15.0344 15.2396 15.049C15.2606 15.0635 15.2844 15.0734 15.3095 15.0781L16.247 15.2625C16.3903 15.2878 16.524 15.3515 16.6341 15.4467C16.7441 15.5418 16.8263 15.665 16.872 15.8031C16.9154 15.9368 16.9217 16.0798 16.8903 16.2168C16.859 16.3538 16.7911 16.4797 16.6939 16.5813L16.0189 17.2781Z" fill="white"/>
</svg>
