<svg width="28" height="28" viewBox="0 0 28 28" fill="none" xmlns="http://www.w3.org/2000/svg">
<circle cx="14" cy="14" r="14" fill="#2E95B4"/>
<g clip-path="url(#clip0_300_4288)">
<path d="M18.4844 9.25H18.2188V9.78125H18.4844V9.25Z" fill="white"/>
<path d="M20.0781 14.8281H19.8125V15.3594H20.0781V14.8281Z" fill="white"/>
<path d="M18.4844 12.9688H18.2188V13.5H18.4844V12.9688Z" fill="white"/>
<path d="M16.8906 11.1094H16.625V11.6406H16.8906V11.1094Z" fill="white"/>
<path d="M16.8906 9.25H16.625V9.78125H16.8906V9.25Z" fill="white"/>
<path d="M18.4844 11.1094H18.2188V11.6406H18.4844V11.1094Z" fill="white"/>
<path d="M16.8906 14.8281H16.625V15.3594H16.8906V14.8281Z" fill="white"/>
<path d="M18.4844 14.8281H18.2188V15.3594H18.4844V14.8281Z" fill="white"/>
<path d="M20.0781 9.25H19.8125V9.78125H20.0781V9.25Z" fill="white"/>
<path d="M20.0781 12.9688H19.8125V13.5H20.0781V12.9688Z" fill="white"/>
<path d="M16.8906 12.9688H16.625V13.5H16.8906V12.9688Z" fill="white"/>
<path d="M20.0781 11.1094H19.8125V11.6406H20.0781V11.1094Z" fill="white"/>
<path d="M21.6719 20.1406V19.6094H21.4062V7.92188H18.75V7.39062H20.875V5.79688H18.2188V7.92188H15.2969V12.7031H14.7656C14.6964 11.9797 14.3601 11.308 13.8223 10.8192C13.2845 10.3304 12.5838 10.0595 11.857 10.0595C11.1303 10.0595 10.4296 10.3304 9.8918 10.8192C9.35399 11.308 9.01765 11.9797 8.94844 12.7031H7.59375V19.6094H7.32812V20.1406H6.79688V21.2031H22.2031V20.1406H21.6719ZM18.75 6.32812H20.3438V6.85938H18.75V6.32812ZM11.8438 10.8438C11.9488 10.8438 12.0515 10.8749 12.1389 10.9333C12.2263 10.9917 12.2944 11.0746 12.3346 11.1717C12.3748 11.2688 12.3853 11.3756 12.3648 11.4786C12.3443 11.5817 12.2937 11.6764 12.2194 11.7507C12.1451 11.8249 12.0504 11.8755 11.9474 11.896C11.8443 11.9165 11.7375 11.906 11.6404 11.8658C11.5434 11.8256 11.4604 11.7575 11.402 11.6701C11.3437 11.5828 11.3125 11.4801 11.3125 11.375C11.3125 11.2341 11.3685 11.099 11.4681 10.9993C11.5677 10.8997 11.7029 10.8438 11.8438 10.8438ZM14.5 19.0781H8.65625V17.4844H14.5V19.0781ZM14.5 17.2188H8.65625V15.625H14.5V17.2188ZM14.5 15.3594H8.65625V13.7656H14.5V15.3594ZM20.0781 19.6094H16.8906V18.4141C16.8913 18.0268 17.0455 17.6556 17.3193 17.3818C17.5931 17.108 17.9643 16.9538 18.3516 16.9531H18.6172C19.0044 16.9538 19.3756 17.108 19.6495 17.3818C19.9233 17.6556 20.0774 18.0268 20.0781 18.4141V19.6094ZM19.2812 8.71875H20.6094V10.3125H19.2812V8.71875ZM19.2812 10.5781H20.6094V12.1719H19.2812V10.5781ZM19.2812 12.4375H20.6094V14.0312H19.2812V12.4375ZM19.2812 14.2969H20.6094V15.8906H19.2812V14.2969ZM17.6875 8.71875H19.0156V10.3125H17.6875V8.71875ZM17.6875 10.5781H19.0156V12.1719H17.6875V10.5781ZM17.6875 12.4375H19.0156V14.0312H17.6875V12.4375ZM17.6875 14.2969H19.0156V15.8906H17.6875V14.2969ZM16.0938 8.71875H17.4219V10.3125H16.0938V8.71875ZM16.0938 10.5781H17.4219V12.1719H16.0938V10.5781ZM16.0938 12.4375H17.4219V14.0312H16.0938V12.4375ZM16.0938 14.2969H17.4219V15.8906H16.0938V14.2969Z" fill="white"/>
</g>
<defs>
<clipPath id="clip0_300_4288">
<rect width="17" height="17" fill="white" transform="translate(6 5)"/>
</clipPath>
</defs>
</svg>
