<svg width="28" height="28" viewBox="0 0 28 28" fill="none" xmlns="http://www.w3.org/2000/svg">
<circle cx="14" cy="14" r="14" fill="#2E95B4"/>
<path d="M14 7.5C10.4103 7.5 7.5 10.4103 7.5 14C7.5 17.5897 10.4103 20.5 14 20.5C17.5897 20.5 20.5 17.5897 20.5 14C20.5 10.4103 17.5897 7.5 14 7.5ZM17 15H14C13.8674 15 13.7402 14.9473 13.6464 14.8536C13.5527 14.7598 13.5 14.6326 13.5 14.5V10C13.5 9.86739 13.5527 9.74021 13.6464 9.64645C13.7402 9.55268 13.8674 9.5 14 9.5C14.1326 9.5 14.2598 9.55268 14.3536 9.64645C14.4473 9.74021 14.5 9.86739 14.5 10V14H17C17.1326 14 17.2598 14.0527 17.3536 14.1464C17.4473 14.2402 17.5 14.3674 17.5 14.5C17.5 14.6326 17.4473 14.7598 17.3536 14.8536C17.2598 14.9473 17.1326 15 17 15Z" fill="white"/>
</svg>
