<svg width="28" height="28" viewBox="0 0 28 28" fill="none" xmlns="http://www.w3.org/2000/svg">
<circle cx="14" cy="14" r="14" fill="#2E95B4"/>
<path d="M11.8933 11.4885H12.8666V19.2751H11.8933V11.4885Z" fill="white"/>
<path d="M13.8399 11.4885H14.8133V19.2751H13.8399V11.4885Z" fill="white"/>
<path d="M15.7866 11.4885H16.7599V19.2751H15.7866V11.4885Z" fill="white"/>
<path d="M8 8.56836H20.6532V9.54168H8V8.56836Z" fill="white"/>
<path d="M16.7274 9.05515H15.819V8.08183C15.819 7.78984 15.5919 7.56273 15.2999 7.56273H13.3533C13.0613 7.56273 12.8341 7.78984 12.8341 8.08183V9.05515H11.9257V8.08183C11.9257 7.30318 12.5746 6.6543 13.3533 6.6543H15.2999C16.0786 6.6543 16.7274 7.30318 16.7274 8.08183V9.05515Z" fill="white"/>
<path d="M17.2466 22.195H11.4066C10.628 22.195 9.94665 21.5461 9.88176 20.7674L8.97333 9.08759L9.94665 9.02271L10.8551 20.7025C10.8875 20.9945 11.1471 21.2216 11.4066 21.2216H17.2466C17.5385 21.2216 17.7981 20.9621 17.7981 20.7025L18.7065 9.02271L19.6799 9.08759L18.7714 20.7674C18.7065 21.5785 18.0252 22.195 17.2466 22.195Z" fill="white"/>
</svg>
