<svg width="15" height="15" viewBox="0 0 15 15" fill="none" xmlns="http://www.w3.org/2000/svg">
<g clip-path="url(#clip0_625_2725)">
<path d="M9.31651 7.7836C9.31651 7.91757 9.27679 8.04852 9.20236 8.15991C9.12793 8.2713 9.02214 8.35812 8.89838 8.40939C8.77461 8.46065 8.63842 8.47407 8.50702 8.44793C8.37563 8.42179 8.25494 8.35728 8.16021 8.26256C8.06549 8.16783 8.00097 8.04714 7.97484 7.91575C7.9487 7.78435 7.96212 7.64816 8.01338 7.52439C8.06465 7.40063 8.15147 7.29484 8.26286 7.22041C8.37424 7.14598 8.5052 7.10626 8.63917 7.10626C8.81881 7.10626 8.9911 7.17762 9.11812 7.30465C9.24515 7.43167 9.31651 7.60396 9.31651 7.7836ZM6.31417 7.10626C6.1802 7.10626 6.04924 7.14598 5.93786 7.22041C5.82647 7.29484 5.73965 7.40063 5.68838 7.52439C5.63712 7.64816 5.6237 7.78435 5.64984 7.91575C5.67597 8.04714 5.74049 8.16783 5.83521 8.26256C5.92994 8.35728 6.05063 8.42179 6.18202 8.44793C6.31342 8.47407 6.44961 8.46065 6.57338 8.40939C6.69714 8.35812 6.80293 8.2713 6.87736 8.15991C6.95179 8.04852 6.99151 7.91757 6.99151 7.7836C6.99151 7.60396 6.92015 7.43167 6.79312 7.30465C6.6661 7.17762 6.49381 7.10626 6.31417 7.10626ZM14.9673 7.50001C14.9684 8.66044 14.6979 9.80501 14.1774 10.8422C13.725 10.4406 13.1363 10.227 12.5317 10.2447C11.927 10.2625 11.3519 10.5105 10.9238 10.9379C10.4958 11.3654 10.247 11.9401 10.2284 12.5448C10.2098 13.1494 10.4226 13.7384 10.8235 14.1914C9.36785 14.9163 7.7155 15.1469 6.11698 14.8481C4.51846 14.5493 3.06095 13.7374 1.9654 12.5356C0.869856 11.3338 0.196015 9.8076 0.0460338 8.18833C-0.103947 6.56905 0.278111 4.94503 1.13429 3.56246C1.99046 2.17989 3.27407 1.11417 4.79051 0.52685C6.30696 -0.0604656 7.97354 -0.137345 9.53761 0.307866C11.1017 0.753078 12.478 1.6961 13.4578 2.99398C14.4376 4.29185 14.9676 5.8738 14.9673 7.50001ZM10.3126 5.40235C10.2943 5.36226 10.2651 5.32814 10.2282 5.30391C9.70895 4.96099 9.1062 4.76575 8.48448 4.73907L8.47042 4.79298C9.46651 5.06251 9.85557 5.38829 9.97979 5.52188C9.9829 5.52437 9.98489 5.52799 9.98533 5.53194C9.98577 5.5359 9.98462 5.53987 9.98214 5.54298C9.97965 5.54608 9.97603 5.54808 9.97207 5.54852C9.96812 5.54896 9.96415 5.54781 9.96104 5.54532C8.94854 4.9922 7.50011 5.02266 7.50011 5.02266C7.50011 5.02266 6.04464 4.9922 5.02745 5.54532C5.01339 5.54532 4.99932 5.54532 5.01104 5.52188C5.13526 5.38829 5.52432 5.05313 6.52042 4.79298L6.50636 4.73907C5.88464 4.76575 5.28188 4.96099 4.76261 5.30391C4.72578 5.32814 4.69654 5.36226 4.67823 5.40235C4.51886 5.75157 3.74073 7.56563 3.81573 9.0797C3.81573 9.0797 4.30557 9.98673 5.70245 10.0617C5.71176 10.0626 5.72114 10.0611 5.72973 10.0574C5.73832 10.0537 5.74586 10.048 5.75167 10.0406L6.06339 9.63985C6.06849 9.63368 6.07216 9.62644 6.07411 9.61867C6.07607 9.6109 6.07627 9.60279 6.0747 9.59493C6.07313 9.58708 6.06982 9.57967 6.06503 9.57325C6.06024 9.56683 6.05407 9.56156 6.04698 9.55782C5.83839 9.44766 5.12589 9.05626 4.87511 8.67657C5.6654 9.1727 6.56848 9.46056 7.50011 9.51329C8.43293 9.45943 9.33688 9.16995 10.1274 8.67188C9.86729 9.05157 9.15479 9.44298 8.95557 9.55313C8.94849 9.55687 8.94232 9.56214 8.93753 9.56856C8.93273 9.57498 8.92943 9.58239 8.92786 9.59025C8.92628 9.5981 8.92648 9.60621 8.92844 9.61398C8.9304 9.62175 8.93406 9.62899 8.93917 9.63516L9.25089 10.0359C9.25669 10.0433 9.26423 10.049 9.27282 10.0527C9.28142 10.0564 9.29079 10.0579 9.30011 10.057C10.7064 9.98204 11.1751 9.07501 11.1751 9.07501C11.2618 7.56563 10.4743 5.75157 10.3126 5.40235ZM14.0931 12.6234C14.0931 12.9173 14.0059 13.2046 13.8426 13.449C13.6794 13.6933 13.4473 13.8838 13.1758 13.9963C12.9043 14.1087 12.6055 14.1382 12.3172 14.0808C12.029 14.0235 11.7642 13.882 11.5564 13.6742C11.3486 13.4663 11.2071 13.2016 11.1498 12.9133C11.0924 12.6251 11.1218 12.3263 11.2343 12.0548C11.3468 11.7833 11.5372 11.5512 11.7816 11.3879C12.026 11.2247 12.3132 11.1375 12.6071 11.1375C13.0012 11.1375 13.3792 11.2941 13.6579 11.5727C13.9365 11.8514 14.0931 12.2294 14.0931 12.6234ZM13.2704 12.0867C13.2191 12.0516 13.156 12.0383 13.0949 12.0497C13.0338 12.0612 12.9798 12.0964 12.9446 12.1477L12.4923 12.8109L12.2392 12.5766C12.2174 12.5546 12.1915 12.5372 12.1629 12.5253C12.1343 12.5134 12.1037 12.5072 12.0728 12.5072C12.0418 12.5072 12.0112 12.5134 11.9826 12.5253C11.9541 12.5372 11.9281 12.5546 11.9064 12.5766C11.8627 12.6205 11.8382 12.6799 11.8382 12.7418C11.8382 12.8037 11.8627 12.8631 11.9064 12.907L12.3587 13.3477C12.4027 13.3901 12.4616 13.4137 12.5228 13.4133H12.5462C12.5804 13.41 12.6134 13.3993 12.6429 13.3819C12.6725 13.3645 12.6979 13.3408 12.7173 13.3125L13.3337 12.4219C13.3525 12.396 13.3658 12.3666 13.3728 12.3355C13.3798 12.3043 13.3803 12.272 13.3744 12.2407C13.3685 12.2093 13.3562 12.1794 13.3383 12.1529C13.3204 12.1265 13.2973 12.1039 13.2704 12.0867Z" fill="#0D1411"/>
</g>
<defs>
<clipPath id="clip0_625_2725">
<rect width="15" height="15" fill="white"/>
</clipPath>
</defs>
</svg>
