<svg width="28" height="28" viewBox="0 0 28 28" fill="none" xmlns="http://www.w3.org/2000/svg">
<circle cx="14" cy="14" r="14" fill="#2E95B4"/>
<g clip-path="url(#clip0_625_1771)">
<path d="M20.8417 9.48735L18.5129 7.15819C18.4116 7.05688 18.2742 7 18.131 7C17.9877 7 17.8504 7.05688 17.7491 7.15812L15.4198 9.48742C15.4195 9.48771 15.4192 9.48814 15.4189 9.48843L10.9512 13.9561C10.854 14.0534 10.7975 14.184 10.7933 14.3216L10.7203 16.7237C10.7157 16.8725 10.7729 17.0166 10.8782 17.1219C10.9796 17.2233 11.117 17.28 11.26 17.28C11.2655 17.28 11.271 17.28 11.2765 17.2797L13.6785 17.2064C13.816 17.2023 13.9466 17.1458 14.0439 17.0486L20.8417 10.2509C21.0526 10.0402 21.0526 9.69825 20.8417 9.48735ZM18.1307 11.4345L16.5654 9.86932L18.131 8.30376L19.6962 9.86918L18.1307 11.4345ZM13.4316 16.1336L11.8172 16.1829L11.8663 14.5685L15.8017 10.6331L17.3671 12.1983L13.4316 16.1336Z" fill="white"/>
<path d="M16.518 15.4311C16.2198 15.4311 15.978 15.6728 15.978 15.9711V19.9201H8.08011V12.0222H12.029C12.3273 12.0222 12.5691 11.7805 12.5691 11.4822C12.5691 11.1839 12.3273 10.9421 12.029 10.9421H7.54008C7.24185 10.9421 7.00006 11.1839 7.00006 11.4822V20.46C7.00006 20.7583 7.24185 21 7.54008 21H16.5179C16.8162 21 17.058 20.7583 17.058 20.46V15.9711C17.058 15.6728 16.8162 15.4311 16.518 15.4311Z" fill="white"/>
</g>
<defs>
<clipPath id="clip0_625_1771">
<rect width="14" height="14" fill="white" transform="translate(7 7)"/>
</clipPath>
</defs>
</svg>
