<svg width="28" height="28" viewBox="0 0 28 28" fill="none" xmlns="http://www.w3.org/2000/svg">
<circle cx="14" cy="14" r="14" fill="#2E95B4"/>
<path d="M14 16.625C13.548 16.625 13.096 16.4767 12.7105 16.1763L7 11.7359V17.9375C7 18.6621 7.58762 19.25 8.3125 19.25H19.6875C20.4124 19.25 21 18.6624 21 17.9375V11.7359L15.2906 16.1793C14.9051 16.4773 14.4512 16.625 14 16.625ZM7.44543 10.973L13.2478 15.4875C13.6905 15.832 14.3106 15.832 14.7533 15.4875L20.5557 10.973C20.8113 10.7543 21 10.418 21 10.0625C21 9.33762 20.4121 8.75 19.6875 8.75H8.3125C7.58762 8.75 7 9.33762 7 10.0625C7 10.418 7.16434 10.7543 7.44543 10.973Z" fill="white"/>
</svg>
