<svg width="28" height="28" viewBox="0 0 28 28" fill="none" xmlns="http://www.w3.org/2000/svg">
<circle cx="14" cy="14" r="14" fill="#2E95B4"/>
<path d="M18.7252 16.175C18.6502 16.1 18.5002 16.025 18.4252 15.95L18.3502 15.875C18.2002 15.8 18.1252 15.65 18.0502 15.5L16.5502 14.675H12.6502L11.1502 15.5C10.7002 16.1 10.0252 16.475 9.2752 16.475C8.8252 16.475 8.4502 16.325 8.0752 16.1C7.5502 15.8 7.1752 15.275 7.0252 14.675C6.8752 14.075 7.0252 13.475 7.3252 12.95L9.4252 9.5C9.5002 9.425 9.5002 9.425 9.5002 9.35C10.1752 8.375 11.2252 7.775 12.3502 7.775H12.5752L9.5752 6.05C9.2752 5.825 8.9002 5.75 8.6002 5.75C8.3002 5.75 7.8502 5.825 7.5502 6.05C6.9502 6.35 6.5752 7.025 6.5752 7.7V20.225C6.5752 20.9 6.9502 21.575 7.5502 21.95C8.1502 22.325 8.9002 22.325 9.5002 21.95L19.2502 16.4C19.1002 16.325 18.9502 16.325 18.8002 16.25C18.8002 16.175 18.8002 16.175 18.7252 16.175Z" fill="white"/>
<path d="M21.425 14.075C21.425 13.925 21.425 13.85 21.35 13.7C21.35 13.55 21.275 13.475 21.2 13.325L20.6 12.35L19.025 9.87499L18.95 9.79999C18.425 9.04999 17.6 8.52499 16.7 8.52499H14.075H12.425C11.525 8.52499 10.7 8.97499 10.175 9.72499L10.1 9.79999L7.925 13.25C7.7 13.625 7.625 14 7.7 14.45C7.775 14.825 8 15.2 8.375 15.425C9.05 15.875 10.1 15.65 10.475 14.975C10.475 14.9 10.55 14.9 10.625 14.825L12.275 13.85C12.35 13.85 12.425 13.775 12.425 13.775H16.55C16.625 13.775 16.7 13.775 16.7 13.85L18.35 14.825C18.425 14.825 18.425 14.9 18.5 14.975C18.575 15.05 18.65 15.125 18.725 15.2C18.8 15.275 18.8 15.275 18.875 15.35C18.875 15.35 18.95 15.35 18.95 15.425C19.25 15.65 19.625 15.725 20 15.65C20.075 15.65 20.075 15.65 20.15 15.65C20.225 15.65 20.3 15.65 20.3 15.575C20.45 15.5 20.525 15.5 20.6 15.425C20.675 15.35 20.75 15.35 20.825 15.275C21.05 15.05 21.2 14.825 21.275 14.45C21.425 14.375 21.425 14.225 21.425 14.075ZM13.025 11.45H12.425V12.05C12.425 12.275 12.275 12.425 12.05 12.425C11.825 12.425 11.675 12.275 11.675 12.05V11.45H11C10.775 11.45 10.625 11.3 10.625 11.075C10.625 10.85 10.775 10.7 11 10.7H11.6V10.025C11.6 9.79999 11.75 9.64999 11.975 9.64999C12.2 9.64999 12.35 9.79999 12.35 10.025V10.625H12.95C13.175 10.625 13.325 10.775 13.325 11C13.4 11.225 13.25 11.45 13.025 11.45ZM16.25 11.45H16.025C15.8 11.45 15.65 11.3 15.65 11.075C15.65 10.85 15.8 10.7 16.025 10.7H16.25C16.475 10.7 16.625 10.85 16.625 11.075C16.625 11.225 16.475 11.45 16.25 11.45ZM17.675 12.275C17.675 12.5 17.525 12.65 17.3 12.65C17.075 12.65 16.925 12.5 16.925 12.275V12.05C16.925 11.825 17.075 11.675 17.3 11.675C17.525 11.675 17.675 11.825 17.675 12.05V12.275ZM17.675 10.025C17.675 10.25 17.525 10.4 17.3 10.4C17.075 10.4 16.925 10.25 16.925 10.025V9.79999C16.925 9.57499 17.075 9.42499 17.3 9.42499C17.525 9.42499 17.675 9.57499 17.675 9.79999V10.025ZM18.5 11.45H18.275C18.05 11.45 17.9 11.3 17.9 11.075C17.9 10.85 18.05 10.7 18.275 10.7H18.5C18.725 10.7 18.875 10.85 18.875 11.075C18.875 11.225 18.725 11.45 18.5 11.45Z" fill="white"/>
</svg>
