<svg width="28" height="28" viewBox="0 0 28 28" fill="none" xmlns="http://www.w3.org/2000/svg">
<circle cx="14" cy="14" r="14" fill="#2E95B4"/>
<g clip-path="url(#clip0_236_1535)">
<path d="M19 8H9C8.44849 8 8 8.44849 8 9V19C8 19.5515 8.44849 20 9 20H19C19.5515 20 20 19.5515 20 19V9C20 8.44849 19.5515 8 19 8ZM13 9.25C13 9.11182 13.1118 9 13.25 9H14.75C14.8882 9 15 9.11182 15 9.25V10.25C15 10.3882 14.8882 10.5 14.75 10.5H14.25V10.75C14.25 10.8882 14.1382 11 14 11C13.8618 11 13.75 10.8882 13.75 10.75V10.5H13.25C13.1118 10.5 13 10.3882 13 10.25V9.25ZM13.75 12.5C13.6118 12.5 13.5 12.3882 13.5 12.25V11.75C13.5 11.6118 13.6118 11.5 13.75 11.5C13.8882 11.5 14 11.6118 14 11.75V12.25C14 12.3882 13.8882 12.5 13.75 12.5ZM14 13.25V13.75C14 13.8882 13.8882 14 13.75 14C13.6118 14 13.5 13.8882 13.5 13.75V13.25C13.5 13.1118 13.6118 13 13.75 13C13.8882 13 14 13.1118 14 13.25ZM10.25 11.75V11.5H9.75C9.61182 11.5 9.5 11.3882 9.5 11.25V10.25C9.5 10.1118 9.61182 10 9.75 10H11.25C11.3882 10 11.5 10.1118 11.5 10.25V11.25C11.5 11.3882 11.3882 11.5 11.25 11.5H10.75V11.75C10.75 11.8882 10.6382 12 10.5 12C10.3618 12 10.25 11.8882 10.25 11.75ZM17 18.75C17 18.8882 16.8882 19 16.75 19H14.75C14.6118 19 14.5 18.8882 14.5 18.75V18.5H13V18.75C13 18.8882 12.8882 19 12.75 19H10.75C10.6118 19 10.5 18.8882 10.5 18.75V17.75C10.5 17.6118 10.6118 17.5 10.75 17.5H11.5V16.75C11.5 16.6118 11.6118 16.5 11.75 16.5V16.25C11.75 16.1118 11.8618 16 12 16C12.1382 16 12.25 16.1118 12.25 16.25V16.5H12.5V15.75C12.5 15.6118 12.6118 15.5 12.75 15.5H13.5V14.75C13.5 14.6118 13.6118 14.5 13.75 14.5C13.8882 14.5 14 14.6118 14 14.75V15.5H14.75C14.8882 15.5 15 15.6118 15 15.75V16.5H15.25V16.25C15.25 16.1118 15.3618 16 15.5 16C15.6382 16 15.75 16.1118 15.75 16.25V16.5C15.8882 16.5 16 16.6118 16 16.75V17.5H16.75C16.8882 17.5 17 17.6118 17 17.75V18.75ZM18.5 12.25C18.5 12.3882 18.3882 12.5 18.25 12.5H17.75V12.75C17.75 12.8882 17.6382 13 17.5 13C17.3618 13 17.25 12.8882 17.25 12.75V12.5H16.75C16.6118 12.5 16.5 12.3882 16.5 12.25V11.25C16.5 11.1118 16.6118 11 16.75 11H18.25C18.3882 11 18.5 11.1118 18.5 11.25V12.25Z" fill="white"/>
</g>
<defs>
<clipPath id="clip0_236_1535">
<rect width="12" height="12" fill="white" transform="translate(8 8)"/>
</clipPath>
</defs>
</svg>
