<svg width="28" height="28" viewBox="0 0 28 28" fill="none" xmlns="http://www.w3.org/2000/svg">
<circle cx="14" cy="14" r="14" fill="#2E95B4"/>
<path d="M19.6667 8H17C16.8158 8 16.6667 8.14909 16.6667 8.33333V9.00289C16.4303 8.86287 16.2991 8.18632 16.2982 8.18424C16.2415 8.07129 16.1263 8 16 8H12C11.8737 8 11.7585 8.07129 11.7018 8.18424C11.6021 8.38367 11.4625 8.93136 11.3333 9V8.33333C11.3333 8.14909 11.1842 8 11 8H8.33333C7.04688 8 6 9.04688 6 10.3333V17.6667C6 18.9531 7.04688 20 8.33333 20H19.6667C20.9531 20 22 18.9531 22 17.6667V10.3333C22 9.04688 20.9531 8 19.6667 8ZM20 12C20.1841 12 20.3333 12.1492 20.3333 12.3333C20.3333 12.5174 20.1841 12.6667 20 12.6667C19.8159 12.6667 19.6667 12.5174 19.6667 12.3333C19.6667 12.1492 19.8159 12 20 12ZM19.6667 11.6667C19.6667 11.8507 19.5174 12 19.3333 12C19.1493 12 19 11.8507 19 11.6667C19 11.4825 19.1493 11.3333 19.3333 11.3333C19.5174 11.3333 19.6667 11.4825 19.6667 11.6667ZM19.3333 12.6667C19.5174 12.6667 19.6667 12.8159 19.6667 13C19.6667 13.1841 19.5174 13.3333 19.3333 13.3333C19.1493 13.3333 19 13.1841 19 13C19 12.8159 19.1493 12.6667 19.3333 12.6667ZM18.6667 12.6667C18.4826 12.6667 18.3333 12.5174 18.3333 12.3333C18.3333 12.1492 18.4826 12 18.6667 12C18.8507 12 19 12.1492 19 12.3333C19 12.5174 18.8507 12.6667 18.6667 12.6667ZM18.3333 9.33333C18.3333 9.14909 18.4824 9 18.6667 9C18.8509 9 19 9.14909 19 9.33333C19.1842 9.33333 19.3333 9.48242 19.3333 9.66667C19.3333 9.85091 19.1842 10 19 10C19 10.1842 18.8509 10.3333 18.6667 10.3333C18.4824 10.3333 18.3333 10.1842 18.3333 10C18.1491 10 18 9.85091 18 9.66667C18 9.48242 18.1491 9.33333 18.3333 9.33333ZM8 16C7.81592 16 7.66667 15.8507 7.66667 15.6667C7.66667 15.4825 7.81592 15.3333 8 15.3333C8.18408 15.3333 8.33333 15.4825 8.33333 15.6667C8.33333 15.8507 8.18408 16 8 16ZM8.66667 16.6667C8.48258 16.6667 8.33333 16.5174 8.33333 16.3333C8.33333 16.1492 8.48258 16 8.66667 16C8.85075 16 9 16.1492 9 16.3333C9 16.5174 8.85075 16.6667 8.66667 16.6667ZM8.33333 15C8.33333 14.8159 8.48258 14.6667 8.66667 14.6667C8.85075 14.6667 9 14.8159 9 15C9 15.1841 8.85075 15.3333 8.66667 15.3333C8.48258 15.3333 8.33333 15.1841 8.33333 15ZM9.33333 16C9.14925 16 9 15.8507 9 15.6667C9 15.4825 9.14925 15.3333 9.33333 15.3333C9.51742 15.3333 9.66667 15.4825 9.66667 15.6667C9.66667 15.8507 9.51742 16 9.33333 16ZM8.66667 14C7.93164 14 7.33333 13.402 7.33333 12.6667C7.33333 11.9313 7.93164 11.3333 8.66667 11.3333C9.40169 11.3333 10 11.9313 10 12.6667C10 13.402 9.40169 14 8.66667 14ZM9.66667 10H9C8.81576 10 8.66667 9.85091 8.66667 9.66667C8.66667 9.48242 8.81576 9.33333 9 9.33333H9.66667C9.85091 9.33333 10 9.48242 10 9.66667C10 9.85091 9.85091 10 9.66667 10ZM19.3333 16.6667C18.5983 16.6667 18 16.0687 18 15.3333C18 14.598 18.5983 14 19.3333 14C20.0684 14 20.6667 14.598 20.6667 15.3333C20.6667 16.0687 20.0684 16.6667 19.3333 16.6667Z" fill="white"/>
</svg>
