<svg width="15" height="15" viewBox="0 0 15 15" fill="none" xmlns="http://www.w3.org/2000/svg">
<circle cx="7.5" cy="7.5" r="7.5" fill="#2E95B4"/>
<g clip-path="url(#clip0_625_2689)">
<path d="M11.0126 8.73435C11.0126 8.81821 11.0624 8.89493 11.1361 8.9341C11.1719 8.9561 11.2126 8.96428 11.2482 8.96428C11.2843 8.96428 11.3351 8.9558 11.3798 8.92302C11.6432 8.7405 11.8001 8.43914 11.8001 8.12426V4.67272C11.8001 4.13125 11.3595 3.69712 10.8245 3.69712H4.18129C3.64109 3.69712 3.20005 4.13084 3.20005 4.67272V8.11861C3.20005 8.43906 3.35696 8.74085 3.62106 8.92352C3.69645 8.97697 3.78766 8.97236 3.85883 8.93678C3.93537 8.8985 3.98755 8.82017 3.98755 8.73435V8.70611C3.98755 8.32025 4.29912 8.00395 4.6897 8.00395C5.0812 8.00395 5.39751 8.32117 5.39751 8.70611C5.39751 8.83477 5.49877 8.93603 5.62744 8.93603C5.75611 8.93603 5.85737 8.83477 5.85737 8.70611C5.85737 8.32117 6.17367 8.00395 6.56518 8.00395C6.95057 8.00395 7.26733 8.32071 7.26733 8.70611C7.26733 8.83757 7.37708 8.93603 7.49726 8.93603C7.6203 8.93603 7.73284 8.84023 7.73284 8.70611C7.73284 8.32071 8.0496 8.00395 8.435 8.00395C8.8265 8.00395 9.1428 8.32117 9.1428 8.70611C9.1428 8.83477 9.24407 8.93603 9.37273 8.93603C9.5014 8.93603 9.60266 8.83477 9.60266 8.70611C9.60266 8.32117 9.91897 8.00395 10.3105 8.00395C10.6959 8.00395 11.0126 8.32071 11.0126 8.70611V8.73435ZM11.3346 8.12426C11.3346 8.13114 11.3345 8.138 11.3342 8.14485C11.1356 7.78243 10.7515 7.53844 10.3105 7.53844C9.92423 7.53844 9.58467 7.72486 9.37261 8.00833C9.15939 7.72469 8.81611 7.53844 8.435 7.53844C8.05389 7.53844 7.7106 7.72469 7.49739 8.00833C7.28533 7.72486 6.94576 7.53844 6.55953 7.53844C6.17747 7.53844 5.83828 7.72551 5.62647 8.00944C5.41124 7.72591 5.07227 7.53844 4.6897 7.53844C4.24857 7.53844 3.86448 7.7825 3.66593 8.145C3.66568 8.13813 3.66555 8.13121 3.66555 8.12426V4.67272C3.66555 4.3878 3.89313 4.15697 4.17564 4.15697H10.8189C11.1026 4.15697 11.3346 4.389 11.3346 4.67272V8.12426Z" fill="white" stroke="white" stroke-width="0.2"/>
<path fill-rule="evenodd" clip-rule="evenodd" d="M9.41796 8.5536H9.32757C9.27108 8.5536 9.22024 8.51406 9.2033 8.46322C9.09596 8.12428 8.78527 7.90397 8.43503 7.90397C8.08479 7.90397 7.77975 8.12428 7.66677 8.46322C7.64982 8.51406 7.59898 8.5536 7.54249 8.5536H7.4521C7.39561 8.5536 7.34477 8.51406 7.32782 8.46322C7.22049 8.12428 6.9098 7.90397 6.55956 7.90397C6.20932 7.90397 5.90427 8.12428 5.79694 8.46322C5.78 8.51406 5.72916 8.5536 5.67267 8.5536H5.58228C5.52014 8.5536 5.47495 8.51406 5.45235 8.46322C5.34502 8.12428 5.03998 7.90397 4.68974 7.90397C4.44683 7.90397 4.22087 8.0113 4.06835 8.19771C4.03445 8.23726 3.98361 8.2542 3.93277 8.23726C3.88758 8.22596 3.84804 8.18642 3.83674 8.14122C3.83109 8.10733 3.82544 8.06779 3.82544 8.03954V4.75747C3.82544 4.47502 4.05705 4.24341 4.34515 4.24341H10.6551C10.9375 4.24341 11.1692 4.47502 11.1692 4.75747V8.03389C11.1692 8.06779 11.1692 8.10733 11.1579 8.13557C11.1522 8.18642 11.1127 8.22596 11.0618 8.23726C11.011 8.2542 10.9601 8.23726 10.9319 8.19771C10.7737 8.0113 10.5478 7.90397 10.3105 7.90397C9.96026 7.90397 9.64957 8.12428 9.54224 8.46322C9.52529 8.51406 9.47445 8.5536 9.41796 8.5536ZM4.68974 7.63846C5.08517 7.63846 5.44106 7.85312 5.62747 8.19206C5.80824 7.85312 6.16413 7.63846 6.55956 7.63846C6.95499 7.63846 7.31088 7.85312 7.49729 8.19206C7.68371 7.85312 8.0396 7.63846 8.43503 7.63846C8.83046 7.63846 9.18635 7.85312 9.37277 8.19206C9.55918 7.85312 9.91507 7.63846 10.3105 7.63846C10.5252 7.63846 10.7285 7.70625 10.9036 7.81923V4.75747C10.9036 4.62189 10.7907 4.50891 10.6551 4.50891H4.34515C4.20392 4.50891 4.09094 4.62189 4.09094 4.75747V7.81923C4.26606 7.70625 4.47508 7.63846 4.68974 7.63846Z" fill="white"/>
<path d="M2.81425 11.253H4.68972C4.79351 11.253 4.86965 11.1657 4.86965 11.0674V9.96589C4.86965 9.3453 4.36727 8.84258 3.75199 8.84258C3.13671 8.84258 2.63433 9.3453 2.63433 9.96589V11.0731C2.63433 11.1741 2.7132 11.253 2.81425 11.253ZM4.50415 9.96589V10.8875H2.99418V9.96589C2.99418 9.54723 3.33333 9.20808 3.75199 9.20808C4.16477 9.20808 4.50415 9.547 4.50415 9.96589Z" fill="white" stroke="white" stroke-width="0.1"/>
<path d="M4.68974 11.253H6.56521C6.66197 11.253 6.74514 11.1671 6.74514 11.0674V9.96589C6.74514 9.3453 6.24276 8.84258 5.62748 8.84258C5.01219 8.84258 4.50981 9.3453 4.50981 9.96589V11.0731C4.50981 11.1741 4.58869 11.253 4.68974 11.253ZM6.37964 9.96589V10.8875H4.86967V9.96589C4.86967 9.54723 5.20882 9.20808 5.62748 9.20808C6.04026 9.20808 6.37964 9.547 6.37964 9.96589Z" fill="white" stroke="white" stroke-width="0.1"/>
<path d="M6.56526 11.253H8.43509C8.53887 11.253 8.61501 11.1657 8.61501 11.0674V9.96589C8.61501 9.34547 8.11845 8.84258 7.49735 8.84258C6.88207 8.84258 6.37969 9.3453 6.37969 9.96589V11.0731C6.37969 11.1769 6.46702 11.253 6.56526 11.253ZM8.25516 9.96589V10.8875H6.74519V9.96589C6.74519 9.547 7.08457 9.20808 7.49735 9.20808C7.91601 9.20808 8.25516 9.54723 8.25516 9.96589Z" fill="white" stroke="white" stroke-width="0.1"/>
<path d="M8.4351 11.253H10.3106C10.4144 11.253 10.4905 11.1657 10.4905 11.0674V9.96589C10.4905 9.3453 9.98812 8.84258 9.37284 8.84258C8.75756 8.84258 8.25518 9.3453 8.25518 9.96589V11.0731C8.25518 11.1741 8.33405 11.253 8.4351 11.253ZM10.125 9.96589V10.8875H8.61503V9.96589C8.61503 9.54723 8.95418 9.20808 9.37284 9.20808C9.78562 9.20808 10.125 9.547 10.125 9.96589Z" fill="white" stroke="white" stroke-width="0.1"/>
<path d="M10.3106 11.253H12.1861C12.2828 11.253 12.366 11.1671 12.366 11.0674V9.96589C12.366 9.3453 11.8636 8.84258 11.2483 8.84258C10.633 8.84258 10.1307 9.3453 10.1307 9.96589V11.0731C10.1307 11.1741 10.2095 11.253 10.3106 11.253ZM12.0005 9.96589V10.8875H10.4905V9.96589C10.4905 9.54723 10.8297 9.20808 11.2483 9.20808C11.6611 9.20808 12.0005 9.547 12.0005 9.96589Z" fill="white" stroke="white" stroke-width="0.1"/>
<path d="M4.88015 9.84484L4.88016 9.84484L4.88032 9.84388C4.93857 9.48374 5.2568 9.20801 5.62747 9.20801C5.72145 9.20801 5.80739 9.13053 5.80739 9.02808V8.70609C5.80739 8.09098 5.30484 7.58843 4.68973 7.58843C4.07462 7.58843 3.57207 8.09098 3.57207 8.70609V9.02808C3.57207 9.12914 3.65095 9.20801 3.752 9.20801C4.11671 9.20801 4.44 9.48316 4.4989 9.84234C4.508 9.93099 4.58719 9.99887 4.67843 9.99887H4.70103C4.78951 9.99887 4.86493 9.92854 4.88015 9.84484ZM5.44189 8.86092C5.13299 8.91474 4.85969 9.09837 4.68973 9.3556C4.51958 9.09813 4.2456 8.91447 3.93192 8.8608V8.70609C3.93192 8.29331 4.27085 7.95393 4.68973 7.95393C5.10274 7.95393 5.44189 8.29308 5.44189 8.70609V8.86092Z" fill="white" stroke="white" stroke-width="0.1"/>
<path d="M6.36902 9.84388L6.36901 9.84388L6.36919 9.84484C6.38441 9.92854 6.45982 9.99887 6.54831 9.99887H6.57655C6.66344 9.99887 6.74123 9.92988 6.7504 9.84273C6.81488 9.48256 7.13329 9.20801 7.49734 9.20801C7.59558 9.20801 7.68292 9.13187 7.68292 9.02808V8.70609C7.68292 8.09081 7.18019 7.58843 6.55961 7.58843C5.94449 7.58843 5.44194 8.09098 5.44194 8.70609V9.02808C5.44194 9.13187 5.52928 9.20801 5.62752 9.20801C5.99233 9.20801 6.31073 9.48352 6.36902 9.84388ZM7.31741 8.86092C7.00851 8.91474 6.73521 9.09837 6.56525 9.3556C6.3951 9.09813 6.12112 8.91447 5.80745 8.8608V8.70609C5.80745 8.29331 6.14637 7.95393 6.56525 7.95393C6.97826 7.95393 7.31741 8.29308 7.31741 8.70609V8.86092Z" fill="white" stroke="white" stroke-width="0.1"/>
<path d="M8.24451 9.84388L8.2445 9.84388L8.24468 9.84484C8.25989 9.92854 8.33531 9.99887 8.4238 9.99887H8.44639C8.5418 9.99887 8.61054 9.92718 8.62551 9.84484L8.62552 9.84484L8.62568 9.84388C8.6839 9.48395 9.00759 9.20801 9.37283 9.20801C9.47388 9.20801 9.55276 9.12914 9.55276 9.02808V8.70609C9.55276 8.09098 9.0502 7.58843 8.43509 7.58843C7.81998 7.58843 7.31743 8.09098 7.31743 8.70609V9.02808C7.31743 9.12914 7.39631 9.20801 7.49736 9.20801C7.8626 9.20801 8.18629 9.48395 8.24451 9.84388ZM9.1929 8.8608C8.87923 8.91447 8.60525 9.09813 8.4351 9.3556C8.26514 9.09837 7.99184 8.91474 7.68293 8.86092V8.70609C7.68293 8.29308 8.02209 7.95393 8.43509 7.95393C8.85398 7.95393 9.1929 8.29331 9.1929 8.70609V8.8608Z" fill="white" stroke="white" stroke-width="0.1"/>
<path d="M10.501 9.84484L10.501 9.84484L10.5012 9.84388C10.5594 9.48374 10.8776 9.20801 11.2483 9.20801C11.3423 9.20801 11.4282 9.13053 11.4282 9.02808V8.70609C11.4282 8.09098 10.9257 7.58843 10.3106 7.58843C9.69547 7.58843 9.19292 8.09098 9.19292 8.70609V9.02808C9.19292 9.12914 9.2718 9.20801 9.37285 9.20801C9.73756 9.20801 10.0609 9.48316 10.1197 9.84234C10.1288 9.93099 10.208 9.99887 10.2993 9.99887H10.3219C10.4104 9.99887 10.4858 9.92854 10.501 9.84484ZM11.0627 8.86092C10.7538 8.91474 10.4805 9.09837 10.3106 9.3556C10.1404 9.09813 9.86645 8.91447 9.55277 8.8608V8.70609C9.55277 8.29331 9.8917 7.95393 10.3106 7.95393C10.7236 7.95393 11.0627 8.29308 11.0627 8.70609V8.86092Z" fill="white" stroke="white" stroke-width="0.1"/>
</g>
<defs>
<clipPath id="clip0_625_2689">
<rect width="9.64286" height="9.64286" fill="white" transform="translate(2.67871 2.67871)"/>
</clipPath>
</defs>
</svg>
