<svg width="18" height="18" viewBox="0 0 18 18" fill="none" xmlns="http://www.w3.org/2000/svg">
<path d="M1.5 15H16.5V3H1.5V15ZM9.75 7.71C9.97383 7.84281 10.1593 8.03159 10.288 8.25776C10.4168 8.48393 10.4846 8.73973 10.4846 9C10.4846 9.26027 10.4168 9.51607 10.288 9.74224C10.1593 9.96841 9.97383 10.1572 9.75 10.29V7.71ZM8.25 10.29C8.02617 10.1572 7.84074 9.96841 7.71195 9.74224C7.58316 9.51607 7.51544 9.26027 7.51544 9C7.51544 8.73973 7.58316 8.48393 7.71195 8.25776C7.84074 8.03159 8.02617 7.84281 8.25 7.71V10.29ZM15 10.29C14.7762 10.1572 14.5907 9.96841 14.462 9.74224C14.3332 9.51607 14.2654 9.26027 14.2654 9C14.2654 8.73973 14.3332 8.48393 14.462 8.25776C14.5907 8.03159 14.7762 7.84281 15 7.71V10.29ZM15 6.105C14.3645 6.27771 13.8034 6.65475 13.4034 7.17795C13.0035 7.70114 12.7867 8.34142 12.7867 9C12.7867 9.65858 13.0035 10.2989 13.4034 10.8221C13.8034 11.3452 14.3645 11.7223 15 11.895V13.5H9.75V11.895C10.3855 11.7223 10.9466 11.3452 11.3466 10.8221C11.7465 10.2989 11.9633 9.65858 11.9633 9C11.9633 8.34142 11.7465 7.70114 11.3466 7.17795C10.9466 6.65475 10.3855 6.27771 9.75 6.105V4.5H15V6.105ZM8.25 4.5V6.105C7.61447 6.27771 7.05344 6.65475 6.65345 7.17795C6.25346 7.70114 6.03675 8.34142 6.03675 9C6.03675 9.65858 6.25346 10.2989 6.65345 10.8221C7.05344 11.3452 7.61447 11.7223 8.25 11.895V13.5H3V11.895C3.63553 11.7223 4.19656 11.3452 4.59655 10.8221C4.99654 10.2989 5.21325 9.65858 5.21325 9C5.21325 8.34142 4.99654 7.70114 4.59655 7.17795C4.19656 6.65475 3.63553 6.27771 3 6.105V4.5H8.25ZM3 10.29V7.71C3.22383 7.84281 3.40926 8.03159 3.53805 8.25776C3.66684 8.48393 3.73456 8.73973 3.73456 9C3.73456 9.26027 3.66684 9.51607 3.53805 9.74224C3.40926 9.96841 3.22383 10.1572 3 10.29Z" fill="white"/>
</svg>
