<svg width="22" height="22" viewBox="0 0 22 22" fill="none" xmlns="http://www.w3.org/2000/svg">
<circle cx="11" cy="11" r="11" fill="#0D1411"/>
<g clip-path="url(#clip0_354_77)">
<mask id="path-2-outside-1_354_77" maskUnits="userSpaceOnUse" x="4" y="4.11951" width="14" height="13" fill="black">
<rect fill="white" x="4" y="4.11951" width="14" height="13"/>
<path fill-rule="evenodd" clip-rule="evenodd" d="M5.56942 14.1599H5.16169C5.0703 14.1599 5 14.0826 5 13.9982V12.0791C5 11.9877 5.0703 11.9174 5.16169 11.9174H6.0826V10.3919C6.0826 9.95606 6.43409 9.59754 6.87698 9.59754H8.77504C9.03515 9.59754 9.26714 9.72408 9.41476 9.91388C9.55536 9.72408 9.78735 9.59754 10.0475 9.59754H11.9455C12.2056 9.59754 12.4376 9.72408 12.5852 9.91388C12.7329 9.72408 12.9649 9.59754 13.225 9.59754H15.123C15.5589 9.59754 15.9174 9.95606 15.9174 10.3919V11.9174H16.8383C16.9227 11.9174 17 11.9877 17 12.0791V13.9982C17 14.0826 16.9227 14.1599 16.8383 14.1599H16.4236C16.4236 14.5817 16.4376 14.5325 15.9174 14.5325V15.8049C16.1494 15.8049 16.4236 15.7557 16.4236 15.9666V16.7188C16.4236 16.8102 16.3533 16.8805 16.2689 16.8805H5.73111C5.63972 16.8805 5.56942 16.8102 5.56942 16.7188V15.9666C5.56942 15.7557 5.85062 15.8049 6.0826 15.8049V14.5325C5.56239 14.5325 5.56942 14.5817 5.56942 14.1599ZM14.2935 8.94376H7.31986C7.2355 8.94376 7.15817 8.87346 7.15817 8.7891V6.0826C7.15817 5.99121 7.2355 5.92091 7.31986 5.92091H8.81019V5.27416C8.81019 5.18981 8.88049 5.11951 8.96485 5.11951H9.51318C9.60457 5.11951 9.67487 5.18981 9.67487 5.27416V5.92091H11.9385V5.27416C11.9385 5.18981 12.0088 5.11951 12.1002 5.11951H12.6415C12.7329 5.11951 12.8032 5.18981 12.8032 5.27416V5.92091H14.2935C14.3779 5.92091 14.4482 5.99121 14.4482 6.0826V8.7891C14.4482 8.87346 14.3779 8.94376 14.2935 8.94376ZM7.48155 8.62742H14.1318V6.24429H7.48155V8.62742ZM13.5905 8.24077H8.02285C7.93849 8.24077 7.86819 8.17047 7.86819 8.07909V6.78559C7.86819 6.6942 7.93849 6.6239 8.02285 6.6239H13.5905C13.6749 6.6239 13.7452 6.6942 13.7452 6.78559V8.07909C13.7452 8.17047 13.6749 8.24077 13.5905 8.24077ZM8.18453 7.92443H13.4288V6.94727H8.18453V7.92443ZM9.12654 5.92091H9.35149V5.43585H9.12654V5.92091ZM12.2548 5.92091H12.4868V5.43585H12.2548V5.92091ZM12.7469 12.5712H15.6011V10.3919C15.6011 10.1318 15.3831 9.91388 15.123 9.91388H13.225C12.9578 9.91388 12.7469 10.1318 12.7469 10.3919V12.5712ZM15.9174 12.7258V13.4569C16.4376 13.4569 16.4236 13.4148 16.4236 13.8366H16.6766V12.2337H15.9174V12.7258ZM12.7469 12.8875V13.4569H15.6011V12.8875H12.7469ZM9.56942 12.5712H12.4236V10.3919C12.4236 10.1318 12.2127 9.91388 11.9455 9.91388H10.0475C9.78735 9.91388 9.56942 10.1318 9.56942 10.3919V12.5712ZM9.56942 13.4569H12.4236V12.8875H9.56942V13.4569ZM6.0826 12.2337H5.31634V13.8366H5.56942C5.56942 13.4148 5.56239 13.4569 6.0826 13.4569V12.2337ZM6.39895 12.5712H9.25308V10.3919C9.25308 10.1318 9.03515 9.91388 8.77504 9.91388H6.87698C6.61687 9.91388 6.39895 10.1318 6.39895 10.3919V12.5712ZM6.39895 13.4569H9.25308V12.8875H6.39895V13.4569ZM14.9192 14.5325H13.0844V15.8049H14.9192V14.5325ZM12.0861 14.5325H9.91388V15.8049H12.0861V14.5325ZM8.91564 14.5325H7.07381V15.8049H8.91564V14.5325ZM5.89279 14.2162H16.1072V13.7803H5.89279V14.2162ZM6.39895 15.8049H6.75747V14.5325H6.39895V15.8049ZM9.23199 15.8049H9.59051V14.5325H9.23199V15.8049ZM12.4095 15.8049H12.761V14.5325H12.4095V15.8049ZM15.2425 15.8049H15.6011V14.5325H15.2425V15.8049ZM5.89279 16.5641H16.1072V16.1283H5.89279V16.5641Z"/>
</mask>
<path fill-rule="evenodd" clip-rule="evenodd" d="M5.56942 14.1599H5.16169C5.0703 14.1599 5 14.0826 5 13.9982V12.0791C5 11.9877 5.0703 11.9174 5.16169 11.9174H6.0826V10.3919C6.0826 9.95606 6.43409 9.59754 6.87698 9.59754H8.77504C9.03515 9.59754 9.26714 9.72408 9.41476 9.91388C9.55536 9.72408 9.78735 9.59754 10.0475 9.59754H11.9455C12.2056 9.59754 12.4376 9.72408 12.5852 9.91388C12.7329 9.72408 12.9649 9.59754 13.225 9.59754H15.123C15.5589 9.59754 15.9174 9.95606 15.9174 10.3919V11.9174H16.8383C16.9227 11.9174 17 11.9877 17 12.0791V13.9982C17 14.0826 16.9227 14.1599 16.8383 14.1599H16.4236C16.4236 14.5817 16.4376 14.5325 15.9174 14.5325V15.8049C16.1494 15.8049 16.4236 15.7557 16.4236 15.9666V16.7188C16.4236 16.8102 16.3533 16.8805 16.2689 16.8805H5.73111C5.63972 16.8805 5.56942 16.8102 5.56942 16.7188V15.9666C5.56942 15.7557 5.85062 15.8049 6.0826 15.8049V14.5325C5.56239 14.5325 5.56942 14.5817 5.56942 14.1599ZM14.2935 8.94376H7.31986C7.2355 8.94376 7.15817 8.87346 7.15817 8.7891V6.0826C7.15817 5.99121 7.2355 5.92091 7.31986 5.92091H8.81019V5.27416C8.81019 5.18981 8.88049 5.11951 8.96485 5.11951H9.51318C9.60457 5.11951 9.67487 5.18981 9.67487 5.27416V5.92091H11.9385V5.27416C11.9385 5.18981 12.0088 5.11951 12.1002 5.11951H12.6415C12.7329 5.11951 12.8032 5.18981 12.8032 5.27416V5.92091H14.2935C14.3779 5.92091 14.4482 5.99121 14.4482 6.0826V8.7891C14.4482 8.87346 14.3779 8.94376 14.2935 8.94376ZM7.48155 8.62742H14.1318V6.24429H7.48155V8.62742ZM13.5905 8.24077H8.02285C7.93849 8.24077 7.86819 8.17047 7.86819 8.07909V6.78559C7.86819 6.6942 7.93849 6.6239 8.02285 6.6239H13.5905C13.6749 6.6239 13.7452 6.6942 13.7452 6.78559V8.07909C13.7452 8.17047 13.6749 8.24077 13.5905 8.24077ZM8.18453 7.92443H13.4288V6.94727H8.18453V7.92443ZM9.12654 5.92091H9.35149V5.43585H9.12654V5.92091ZM12.2548 5.92091H12.4868V5.43585H12.2548V5.92091ZM12.7469 12.5712H15.6011V10.3919C15.6011 10.1318 15.3831 9.91388 15.123 9.91388H13.225C12.9578 9.91388 12.7469 10.1318 12.7469 10.3919V12.5712ZM15.9174 12.7258V13.4569C16.4376 13.4569 16.4236 13.4148 16.4236 13.8366H16.6766V12.2337H15.9174V12.7258ZM12.7469 12.8875V13.4569H15.6011V12.8875H12.7469ZM9.56942 12.5712H12.4236V10.3919C12.4236 10.1318 12.2127 9.91388 11.9455 9.91388H10.0475C9.78735 9.91388 9.56942 10.1318 9.56942 10.3919V12.5712ZM9.56942 13.4569H12.4236V12.8875H9.56942V13.4569ZM6.0826 12.2337H5.31634V13.8366H5.56942C5.56942 13.4148 5.56239 13.4569 6.0826 13.4569V12.2337ZM6.39895 12.5712H9.25308V10.3919C9.25308 10.1318 9.03515 9.91388 8.77504 9.91388H6.87698C6.61687 9.91388 6.39895 10.1318 6.39895 10.3919V12.5712ZM6.39895 13.4569H9.25308V12.8875H6.39895V13.4569ZM14.9192 14.5325H13.0844V15.8049H14.9192V14.5325ZM12.0861 14.5325H9.91388V15.8049H12.0861V14.5325ZM8.91564 14.5325H7.07381V15.8049H8.91564V14.5325ZM5.89279 14.2162H16.1072V13.7803H5.89279V14.2162ZM6.39895 15.8049H6.75747V14.5325H6.39895V15.8049ZM9.23199 15.8049H9.59051V14.5325H9.23199V15.8049ZM12.4095 15.8049H12.761V14.5325H12.4095V15.8049ZM15.2425 15.8049H15.6011V14.5325H15.2425V15.8049ZM5.89279 16.5641H16.1072V16.1283H5.89279V16.5641Z" fill="white"/>
<path fill-rule="evenodd" clip-rule="evenodd" d="M5.56942 14.1599H5.16169C5.0703 14.1599 5 14.0826 5 13.9982V12.0791C5 11.9877 5.0703 11.9174 5.16169 11.9174H6.0826V10.3919C6.0826 9.95606 6.43409 9.59754 6.87698 9.59754H8.77504C9.03515 9.59754 9.26714 9.72408 9.41476 9.91388C9.55536 9.72408 9.78735 9.59754 10.0475 9.59754H11.9455C12.2056 9.59754 12.4376 9.72408 12.5852 9.91388C12.7329 9.72408 12.9649 9.59754 13.225 9.59754H15.123C15.5589 9.59754 15.9174 9.95606 15.9174 10.3919V11.9174H16.8383C16.9227 11.9174 17 11.9877 17 12.0791V13.9982C17 14.0826 16.9227 14.1599 16.8383 14.1599H16.4236C16.4236 14.5817 16.4376 14.5325 15.9174 14.5325V15.8049C16.1494 15.8049 16.4236 15.7557 16.4236 15.9666V16.7188C16.4236 16.8102 16.3533 16.8805 16.2689 16.8805H5.73111C5.63972 16.8805 5.56942 16.8102 5.56942 16.7188V15.9666C5.56942 15.7557 5.85062 15.8049 6.0826 15.8049V14.5325C5.56239 14.5325 5.56942 14.5817 5.56942 14.1599ZM14.2935 8.94376H7.31986C7.2355 8.94376 7.15817 8.87346 7.15817 8.7891V6.0826C7.15817 5.99121 7.2355 5.92091 7.31986 5.92091H8.81019V5.27416C8.81019 5.18981 8.88049 5.11951 8.96485 5.11951H9.51318C9.60457 5.11951 9.67487 5.18981 9.67487 5.27416V5.92091H11.9385V5.27416C11.9385 5.18981 12.0088 5.11951 12.1002 5.11951H12.6415C12.7329 5.11951 12.8032 5.18981 12.8032 5.27416V5.92091H14.2935C14.3779 5.92091 14.4482 5.99121 14.4482 6.0826V8.7891C14.4482 8.87346 14.3779 8.94376 14.2935 8.94376ZM7.48155 8.62742H14.1318V6.24429H7.48155V8.62742ZM13.5905 8.24077H8.02285C7.93849 8.24077 7.86819 8.17047 7.86819 8.07909V6.78559C7.86819 6.6942 7.93849 6.6239 8.02285 6.6239H13.5905C13.6749 6.6239 13.7452 6.6942 13.7452 6.78559V8.07909C13.7452 8.17047 13.6749 8.24077 13.5905 8.24077ZM8.18453 7.92443H13.4288V6.94727H8.18453V7.92443ZM9.12654 5.92091H9.35149V5.43585H9.12654V5.92091ZM12.2548 5.92091H12.4868V5.43585H12.2548V5.92091ZM12.7469 12.5712H15.6011V10.3919C15.6011 10.1318 15.3831 9.91388 15.123 9.91388H13.225C12.9578 9.91388 12.7469 10.1318 12.7469 10.3919V12.5712ZM15.9174 12.7258V13.4569C16.4376 13.4569 16.4236 13.4148 16.4236 13.8366H16.6766V12.2337H15.9174V12.7258ZM12.7469 12.8875V13.4569H15.6011V12.8875H12.7469ZM9.56942 12.5712H12.4236V10.3919C12.4236 10.1318 12.2127 9.91388 11.9455 9.91388H10.0475C9.78735 9.91388 9.56942 10.1318 9.56942 10.3919V12.5712ZM9.56942 13.4569H12.4236V12.8875H9.56942V13.4569ZM6.0826 12.2337H5.31634V13.8366H5.56942C5.56942 13.4148 5.56239 13.4569 6.0826 13.4569V12.2337ZM6.39895 12.5712H9.25308V10.3919C9.25308 10.1318 9.03515 9.91388 8.77504 9.91388H6.87698C6.61687 9.91388 6.39895 10.1318 6.39895 10.3919V12.5712ZM6.39895 13.4569H9.25308V12.8875H6.39895V13.4569ZM14.9192 14.5325H13.0844V15.8049H14.9192V14.5325ZM12.0861 14.5325H9.91388V15.8049H12.0861V14.5325ZM8.91564 14.5325H7.07381V15.8049H8.91564V14.5325ZM5.89279 14.2162H16.1072V13.7803H5.89279V14.2162ZM6.39895 15.8049H6.75747V14.5325H6.39895V15.8049ZM9.23199 15.8049H9.59051V14.5325H9.23199V15.8049ZM12.4095 15.8049H12.761V14.5325H12.4095V15.8049ZM15.2425 15.8049H15.6011V14.5325H15.2425V15.8049ZM5.89279 16.5641H16.1072V16.1283H5.89279V16.5641Z" stroke="white" stroke-width="0.2" mask="url(#path-2-outside-1_354_77)"/>
</g>
<defs>
<clipPath id="clip0_354_77">
<rect width="12" height="12" fill="white" transform="translate(5 5)"/>
</clipPath>
</defs>
</svg>
