<svg width="13" height="13" viewBox="0 0 13 13" fill="none" xmlns="http://www.w3.org/2000/svg">
<g clip-path="url(#clip0_625_2673)">
<path d="M6.05367 -0.723799C6.13237 -1.19592 5.81343 -1.64248 5.34136 -1.72121C4.8692 -1.79995 4.42264 -1.48103 4.34391 -1.00891L3.59787 3.46487L-0.000366807 3.46699C-0.479018 3.46727 -0.866808 3.85552 -0.866522 4.33416C-0.866245 4.81281 -0.477996 5.20061 0.000655532 5.20035L3.30879 5.19837L2.73064 8.66537L-0.866877 8.66702C-1.34552 8.66719 -1.73337 9.05537 -1.73315 9.53403C-1.73294 10.0127 -1.34475 10.4005 -0.866098 10.4004L2.44157 10.3989L1.74247 14.5911C1.66374 15.0632 1.98265 15.5098 2.45478 15.5885C2.9269 15.6673 3.37346 15.3483 3.4522 14.8762L4.19896 10.3981L8.51111 10.3961L7.81197 14.5912C7.73327 15.0633 8.05221 15.5099 8.52437 15.5885C8.99644 15.6672 9.44303 15.3482 9.52164 14.8762L10.2684 10.3953L13.8672 10.3938C14.3459 10.3935 14.7337 10.0053 14.7335 9.52667C14.7333 9.04809 14.3451 8.66017 13.8665 8.66043L10.5574 8.66191L11.1354 5.19377L14.7339 5.19164C15.2126 5.19137 15.6004 4.80312 15.6002 4.32447C15.5998 3.84582 15.2117 3.45803 14.733 3.45831L11.4243 3.46026L12.1216 -0.723868C12.2003 -1.19601 11.8814 -1.64254 11.4093 -1.72123C10.9372 -1.79991 10.4907 -1.48096 10.412 -1.00883L9.66689 3.46129L5.35531 3.46383L6.05367 -0.723799ZM5.06624 5.19734L9.37803 5.1948L8.80005 8.66269L4.48804 8.66459L5.06624 5.19734Z" fill="#2E95B4"/>
</g>
<defs>
<clipPath id="clip0_625_2673">
<rect width="13" height="13" fill="white"/>
</clipPath>
</defs>
</svg>
