<svg width="19" height="19" viewBox="0 0 19 19" fill="none" xmlns="http://www.w3.org/2000/svg">
<path d="M7.23169 16.4456V14.0249C7.23169 13.407 7.73629 12.906 8.35875 12.906H10.6341C10.9331 12.906 11.2197 13.0239 11.4311 13.2337C11.6425 13.4436 11.7612 13.7282 11.7612 14.0249V16.4456C11.7593 16.7025 11.8608 16.9495 12.0431 17.1318C12.2254 17.3142 12.4735 17.4167 12.7323 17.4167H14.2847C15.0097 17.4186 15.7057 17.134 16.219 16.6257C16.7323 16.1174 17.0208 15.4272 17.0208 14.7075V7.8113C17.0208 7.2299 16.7612 6.67842 16.312 6.3054L11.0311 2.11844C10.1125 1.38432 8.79629 1.40802 7.90509 2.17473L2.74471 6.3054C2.27424 6.66742 1.99305 7.22054 1.97916 7.8113V14.7004C1.97916 16.2006 3.20417 17.4167 4.71529 17.4167H6.23222C6.76971 17.4167 7.20653 16.9862 7.21042 16.4526L7.23169 16.4456Z" fill="#C5C9D0"/>
</svg>
