<svg width="28" height="28" viewBox="0 0 28 28" fill="none" xmlns="http://www.w3.org/2000/svg">
<circle cx="14" cy="14" r="14" fill="#2E95B4"/>
<path d="M14.4775 11.7626H13.1005C12.9928 11.7626 12.8894 11.8054 12.8133 11.8815C12.7371 11.9577 12.6943 12.0611 12.6943 12.1688C12.6943 12.2766 12.7371 12.3799 12.8133 12.4561C12.8894 12.5323 12.9928 12.5751 13.1005 12.5751H13.736V13.0204C13.736 13.1281 13.7788 13.2315 13.855 13.3076C13.9312 13.3838 14.0345 13.4266 14.1423 13.4266C14.25 13.4266 14.3534 13.3838 14.4295 13.3076C14.5057 13.2315 14.5485 13.1281 14.5485 13.0204V12.5679C14.837 12.5506 15.1074 12.4214 15.3022 12.2079C15.497 11.9943 15.6008 11.7132 15.5915 11.4244C15.5823 11.1355 15.4607 10.8616 15.2527 10.6609C15.0446 10.4603 14.7665 10.3487 14.4775 10.3499H13.8598C13.7667 10.3491 13.6776 10.3116 13.612 10.2454C13.5465 10.1793 13.5097 10.0899 13.5097 9.9968C13.5097 9.90367 13.5465 9.8143 13.612 9.74817C13.6776 9.68204 13.7667 9.6445 13.8598 9.64371H15.2482C15.356 9.64371 15.4593 9.60091 15.5355 9.52472C15.6117 9.44854 15.6545 9.34521 15.6545 9.23746C15.6545 9.12972 15.6117 9.02639 15.5355 8.9502C15.4593 8.87401 15.356 8.83121 15.2482 8.83121H14.5485V8.38599C14.5485 8.27824 14.5057 8.17491 14.4295 8.09872C14.3534 8.02254 14.25 7.97974 14.1423 7.97974C14.0345 7.97974 13.9312 8.02254 13.855 8.09872C13.7788 8.17491 13.736 8.27824 13.736 8.38599V8.84369C13.4396 8.87479 13.1665 9.01852 12.9731 9.24521C12.7796 9.4719 12.6806 9.76422 12.6965 10.0618C12.7124 10.3594 12.8419 10.6395 13.0584 10.8443C13.2749 11.0491 13.5618 11.163 13.8598 11.1623H14.4775C14.5571 11.1623 14.6334 11.194 14.6897 11.2502C14.746 11.3065 14.7776 11.3829 14.7776 11.4624C14.7776 11.542 14.746 11.6184 14.6897 11.6747C14.6334 11.7309 14.5571 11.7626 14.4775 11.7626Z" fill="white"/>
<path d="M19.5031 9.95628C19.4287 9.87836 19.3265 9.83314 19.2188 9.83056C19.1111 9.82798 19.0067 9.86824 18.9287 9.9425L18.518 10.3339C18.4496 9.41949 18.0985 8.54903 17.5135 7.843C16.9285 7.13697 16.1384 6.63029 15.2527 6.39313C14.3669 6.15597 13.4294 6.20005 12.5698 6.51927C11.7103 6.8385 10.9712 7.41707 10.455 8.17488C10.3947 8.26385 10.3721 8.3731 10.3922 8.47869C10.4123 8.58428 10.4734 8.6776 10.5622 8.73823C10.6509 8.79885 10.7601 8.82183 10.8657 8.80213C10.9714 8.78243 11.065 8.72166 11.1259 8.63313C11.5452 8.0175 12.1447 7.54663 12.8421 7.28509C13.5396 7.02354 14.3008 6.98412 15.0216 7.17223C15.7423 7.36034 16.3872 7.76677 16.8678 8.3358C17.3485 8.90483 17.6414 9.6086 17.7064 10.3506L17.3164 10.0056C17.2764 9.97027 17.2299 9.94312 17.1794 9.92574C17.1289 9.90836 17.0756 9.9011 17.0223 9.90435C16.969 9.9076 16.9169 9.92132 16.869 9.9447C16.821 9.96809 16.7781 10.0007 16.7427 10.0407C16.6713 10.1214 16.6349 10.2272 16.6415 10.3347C16.6447 10.388 16.6584 10.4401 16.6818 10.4881C16.7052 10.536 16.7378 10.5789 16.7778 10.6143L17.8591 11.5709C17.9353 11.6383 18.0341 11.6747 18.1358 11.6728C18.2376 11.6709 18.3349 11.6309 18.4086 11.5607L19.4892 10.5307C19.5672 10.4564 19.6125 10.3541 19.6151 10.2464C19.6177 10.1386 19.5774 10.0343 19.5031 9.95628Z" fill="white"/>
<path d="M17.8725 12.5498C17.7808 12.4932 17.6704 12.4754 17.5656 12.5002C17.4607 12.525 17.37 12.5904 17.3134 12.6821C16.9154 13.3284 16.3238 13.8329 15.6228 14.1237C14.9217 14.4146 14.1468 14.4771 13.4081 14.3024C12.6695 14.1277 12.0047 13.7247 11.5082 13.1505C11.0117 12.5764 10.7088 11.8604 10.6425 11.1043L11.0325 11.4493C11.0725 11.4846 11.119 11.5118 11.1695 11.5292C11.2199 11.5465 11.2733 11.5538 11.3266 11.5506C11.3798 11.5473 11.4319 11.5336 11.4799 11.5102C11.5279 11.4868 11.5708 11.4542 11.6061 11.4142C11.6415 11.3743 11.6686 11.3277 11.686 11.2773C11.7034 11.2268 11.7107 11.1734 11.7074 11.1202C11.7042 11.0669 11.6904 11.0148 11.6671 10.9668C11.6437 10.9189 11.6111 10.876 11.5711 10.8406L10.4896 9.88386C10.4101 9.81363 10.3063 9.77725 10.2003 9.78248C10.0944 9.7877 9.99464 9.83411 9.92242 9.91181L8.96662 10.9418C8.89379 11.0209 8.85526 11.1256 8.85947 11.233C8.86369 11.3404 8.9103 11.4418 8.98911 11.5149C9.06791 11.5881 9.17249 11.627 9.27992 11.6232C9.38736 11.6193 9.4889 11.5731 9.56232 11.4946L9.83482 11.2007C9.92123 12.1243 10.2958 12.9973 10.9056 13.6963C11.5154 14.3954 12.3295 14.885 13.2329 15.096C14.1362 15.307 15.083 15.2286 15.9393 14.872C16.7957 14.5154 17.5182 13.8986 18.0048 13.1088C18.0328 13.0634 18.0516 13.0129 18.0602 12.9603C18.0687 12.9076 18.0667 12.8538 18.0545 12.8019C18.0422 12.75 18.0198 12.701 17.9886 12.6577C17.9573 12.6145 17.9179 12.5778 17.8725 12.5498Z" fill="white"/>
<path d="M10.2039 16.103H8.74282C8.68115 16.103 8.62201 16.1275 8.57841 16.1711C8.53481 16.2147 8.51031 16.2739 8.51031 16.3355V21.322C8.51031 21.3837 8.53481 21.4428 8.57841 21.4864C8.62201 21.53 8.68115 21.5545 8.74282 21.5545H10.2039C10.2705 21.5545 10.3364 21.5414 10.3979 21.516C10.4593 21.4905 10.5152 21.4532 10.5622 21.4061C10.6093 21.3591 10.6466 21.3032 10.6721 21.2417C10.6975 21.1802 10.7106 21.1143 10.7106 21.0478V16.6098C10.7106 16.4754 10.6573 16.3465 10.5622 16.2515C10.4672 16.1564 10.3383 16.103 10.2039 16.103Z" fill="white"/>
<path d="M19.4382 16.6737C19.3585 16.5523 19.2498 16.4526 19.1219 16.3837C18.994 16.3148 18.851 16.2788 18.7057 16.2791H18.1332C17.8821 16.2786 17.6366 16.3529 17.4279 16.4925C17.2193 16.6321 17.0569 16.8307 16.9616 17.063C16.8856 17.2456 16.7675 17.4076 16.6168 17.5358C16.4497 17.7531 16.2365 17.9307 15.9925 18.0558C15.7485 18.1808 15.4799 18.2502 15.2058 18.259L13.5088 18.2591C13.4193 18.2591 13.3335 18.2236 13.2702 18.1603C13.2069 18.097 13.1713 18.0111 13.1713 17.9216C13.1713 17.8321 13.2069 17.7463 13.2702 17.683C13.3335 17.6197 13.4193 17.5841 13.5088 17.5841H15.1968C15.4477 17.577 15.689 17.4858 15.8818 17.3251C15.8491 17.0365 15.711 16.7702 15.4939 16.5771C15.2769 16.3841 14.9963 16.278 14.7058 16.2791H13.4614C13.2304 16.2785 13.0016 16.3236 12.7881 16.4118C12.5747 16.4999 12.3807 16.6294 12.2175 16.7929L12.1858 16.8245C11.9668 17.0435 11.6887 17.1937 11.3855 17.2567V20.6417H15.878C16.5563 20.6421 17.2197 20.4435 17.7862 20.0704C18.3526 19.6972 18.7971 19.1661 19.0645 18.5427L19.5115 17.5023C19.5691 17.369 19.5925 17.2234 19.5797 17.0788C19.5669 16.9341 19.5183 16.7949 19.4382 16.6737Z" fill="white"/>
</svg>
