<svg width="28" height="28" viewBox="0 0 28 28" fill="none" xmlns="http://www.w3.org/2000/svg">
<circle cx="14" cy="14" r="14" fill="#2E95B4"/>
<path d="M14.2083 10.4337C14.2083 10.8246 13.8912 11.1415 13.5 11.1415C13.1088 11.1415 12.7917 10.8246 12.7917 10.4337C12.7917 10.0427 13.1088 9.7258 13.5 9.7258C13.8912 9.7258 14.2083 10.0427 14.2083 10.4337ZM14.2307 7.65479C13.7954 7.33732 13.2046 7.33732 12.7693 7.65479L7.51215 11.4886C6.82006 11.9933 7.17729 13.0882 8.03408 13.0882H8.1875V17.1937C7.55679 17.516 7.125 18.1717 7.125 18.9282V19.99C7.125 20.2831 7.36285 20.5209 7.65625 20.5209H12.7917V19.4591H8.1875V18.9282C8.1875 18.4395 8.58391 18.0433 9.07292 18.0433H12.7917V17.6875C12.7917 17.4366 12.8439 17.1978 12.938 16.9815H11.7292V13.0882H12.9688V16.9147C13.18 16.48 13.5638 16.1446 14.0312 15.9978V13.0882H15.2708V14.1812C15.5365 14.0453 15.8374 13.9688 16.1562 13.9688H16.3333V13.0882H17.75V13.9688H18.6354C18.6951 13.9688 18.7542 13.9715 18.8125 13.9767V13.0882H18.9659C19.8227 13.0882 20.1799 11.9933 19.4878 11.4886L14.2307 7.65479ZM13.3956 8.51251C13.4578 8.46716 13.5422 8.46716 13.6044 8.51251L18.4228 12.0264H8.57716L13.3956 8.51251ZM9.25 16.9815V13.0882H10.6667V16.9815H9.25ZM14.9167 16.625H14.5625C13.9757 16.625 13.5 17.1007 13.5 17.6875V18.75H15.2708V18.5729C15.2708 18.2795 15.5087 18.0417 15.8021 18.0417C16.0955 18.0417 16.3333 18.2795 16.3333 18.5729V18.75H18.4583V18.5729C18.4583 18.2795 18.6962 18.0417 18.9896 18.0417C19.283 18.0417 19.5208 18.2795 19.5208 18.5729V18.75H21.2917V17.6875C21.2917 17.1007 20.8159 16.625 20.2292 16.625H19.875V15.9167C19.875 15.2321 19.32 14.6771 18.6354 14.6771H16.1562C15.4716 14.6771 14.9167 15.2321 14.9167 15.9167V16.625ZM15.9792 15.9167C15.9792 15.8189 16.0584 15.7396 16.1562 15.7396H18.6354C18.7332 15.7396 18.8125 15.8189 18.8125 15.9167V16.625H15.9792V15.9167ZM14.5625 22.2917C13.9757 22.2917 13.5 21.816 13.5 21.2292V19.8125H15.2708V20.3438C15.2708 20.6372 15.5087 20.875 15.8021 20.875C16.0955 20.875 16.3333 20.6372 16.3333 20.3438V19.8125H18.4583V20.3438C18.4583 20.6372 18.6962 20.875 18.9896 20.875C19.283 20.875 19.5208 20.6372 19.5208 20.3438V19.8125H21.2917V21.2292C21.2917 21.816 20.8159 22.2917 20.2292 22.2917H14.5625Z" fill="white"/>
</svg>
