<svg width="28" height="28" viewBox="0 0 28 28" fill="none" xmlns="http://www.w3.org/2000/svg">
<circle cx="14" cy="14" r="14" fill="#2E95B4"/>
<g clip-path="url(#clip0_470_943)">
<path d="M14 8.00012C13.3002 7.9803 12.6037 8.10267 11.9527 8.35983C11.3016 8.61699 10.7094 9.00358 10.2121 9.49622C9.71473 9.98886 9.32252 10.5773 9.05917 11.2259C8.79583 11.8745 8.66683 12.5698 8.67999 13.2697C8.67999 17.6825 13.608 21.7649 13.8152 21.9329C13.8659 21.9763 13.9305 22.0001 13.9972 22.0001C14.0639 22.0001 14.1285 21.9763 14.1792 21.9329C14.3976 21.7369 19.32 17.2457 19.32 13.2697C19.3332 12.5698 19.2042 11.8745 18.9408 11.2259C18.6775 10.5773 18.2853 9.98886 17.7879 9.49622C17.2906 9.00358 16.6984 8.61699 16.0473 8.35983C15.3962 8.10267 14.6997 7.9803 14 8.00012ZM14 15.8401C13.5016 15.8401 13.0144 15.6923 12.6 15.4154C12.1855 15.1385 11.8625 14.745 11.6718 14.2845C11.4811 13.824 11.4312 13.3173 11.5284 12.8285C11.6256 12.3397 11.8657 11.8906 12.2181 11.5382C12.5705 11.1858 13.0195 10.9458 13.5084 10.8485C13.9972 10.7513 14.5039 10.8012 14.9644 10.9919C15.4248 11.1827 15.8184 11.5057 16.0953 11.9201C16.3722 12.3345 16.52 12.8217 16.52 13.3201C16.52 13.9885 16.2545 14.6294 15.7819 15.102C15.3093 15.5746 14.6683 15.8401 14 15.8401Z" fill="white"/>
</g>
<defs>
<clipPath id="clip0_470_943">
<rect width="14" height="14" fill="white" transform="translate(7 8)"/>
</clipPath>
</defs>
</svg>
