<svg width="22" height="22" viewBox="0 0 22 22" fill="none" xmlns="http://www.w3.org/2000/svg">
<circle cx="11" cy="11" r="11" fill="#D10400"/>
<path d="M11.3437 15.8125C11.3437 15.9865 11.2746 16.1535 11.1515 16.2765C11.0285 16.3996 10.8615 16.4688 10.6875 16.4688H7.625C7.33492 16.4688 7.05672 16.3535 6.8516 16.1484C6.64648 15.9433 6.53125 15.6651 6.53125 15.375V6.625C6.53125 6.33492 6.64648 6.05672 6.8516 5.8516C7.05672 5.64648 7.33492 5.53125 7.625 5.53125H10.6875C10.8615 5.53125 11.0285 5.60039 11.1515 5.72346C11.2746 5.84653 11.3437 6.01345 11.3437 6.1875C11.3437 6.36155 11.2746 6.52847 11.1515 6.65154C11.0285 6.77461 10.8615 6.84375 10.6875 6.84375H7.84375V15.1562H10.6875C10.8615 15.1562 11.0285 15.2254 11.1515 15.3485C11.2746 15.4715 11.3437 15.6385 11.3437 15.8125ZM17.2768 10.5357L15.0893 8.3482C14.966 8.22492 14.7988 8.15566 14.6245 8.15566C14.4501 8.15566 14.2829 8.22492 14.1596 8.3482C14.0363 8.47149 13.9671 8.6387 13.9671 8.81305C13.9671 8.9874 14.0363 9.15461 14.1596 9.27789L15.2266 10.3438H10.6875C10.5135 10.3438 10.3465 10.4129 10.2235 10.536C10.1004 10.659 10.0312 10.826 10.0312 11C10.0312 11.174 10.1004 11.341 10.2235 11.464C10.3465 11.5871 10.5135 11.6562 10.6875 11.6562H15.2266L14.1591 12.7232C14.0358 12.8465 13.9665 13.0137 13.9665 13.188C13.9665 13.3624 14.0358 13.5296 14.1591 13.6529C14.2823 13.7762 14.4496 13.8454 14.6239 13.8454C14.7983 13.8454 14.9655 13.7762 15.0887 13.6529L17.2762 11.4654C17.3375 11.4045 17.3861 11.332 17.4192 11.2523C17.4524 11.1725 17.4695 11.087 17.4695 11.0007C17.4696 10.9143 17.4526 10.8288 17.4195 10.749C17.3864 10.6692 17.3379 10.5967 17.2768 10.5357Z" fill="white"/>
</svg>
