<svg width="28" height="28" viewBox="0 0 28 28" fill="none" xmlns="http://www.w3.org/2000/svg">
<circle cx="14" cy="14" r="14" fill="#2E95B4"/>
<path d="M18.6527 12.9051C18.7017 12.6242 18.7287 12.3353 18.7287 12.0399C18.7287 9.35492 16.6074 7.17029 14 7.17029C11.3925 7.17029 9.27102 9.35492 9.27102 12.0399C9.27102 12.3353 9.29819 12.624 9.34734 12.9051C8.93675 13.1673 8.66371 13.6258 8.66371 14.1494V18.9166C8.66371 19.732 9.32478 20.393 10.14 20.393H17.8599C18.6749 20.393 19.3358 19.732 19.3358 18.9166H19.3363V14.1494C19.3363 13.6259 19.0635 13.1673 18.6527 12.9051ZM14.6514 17.0676V18.1036C14.6514 18.4636 14.3597 18.7553 13.9998 18.7553C13.6398 18.7553 13.3481 18.4636 13.3481 18.1036V17.0672C12.9302 16.8368 12.6467 16.3924 12.6467 15.8813C12.6467 15.134 13.2525 14.5281 14 14.5281C14.7475 14.5281 15.3534 15.134 15.3534 15.8813C15.3534 16.3926 15.0697 16.8374 14.6514 17.0676ZM16.9295 12.6729H11.0704C11.0302 12.4686 11.0088 12.2567 11.0088 12.0399C11.0088 10.313 12.3506 8.90807 14 8.90807C15.6493 8.90807 16.991 10.3128 16.991 12.0399C16.991 12.2567 16.9698 12.4686 16.9295 12.6729Z" fill="white"/>
</svg>
