<svg width="28" height="28" viewBox="0 0 28 28" fill="none" xmlns="http://www.w3.org/2000/svg">
<circle cx="14" cy="14" r="14" fill="#2E95B4"/>
<path d="M15.0714 20.8572C15.0714 20.5625 14.9665 20.3103 14.7567 20.1005C14.5469 19.8906 14.2946 19.7857 14 19.7857C13.7054 19.7857 13.4531 19.8906 13.2433 20.1005C13.0335 20.3103 12.9286 20.5625 12.9286 20.8572C12.9286 21.1518 13.0335 21.404 13.2433 21.6139C13.4531 21.8237 13.7054 21.9286 14 21.9286C14.2946 21.9286 14.5469 21.8237 14.7567 21.6139C14.9665 21.404 15.0714 21.1518 15.0714 20.8572ZM17.8571 18.7143V9.28573C17.8571 9.16966 17.8147 9.06921 17.7299 8.98439C17.6451 8.89957 17.5446 8.85716 17.4286 8.85716H10.5714C10.4554 8.85716 10.3549 8.89957 10.2701 8.98439C10.1853 9.06921 10.1429 9.16966 10.1429 9.28573V18.7143C10.1429 18.8304 10.1853 18.9308 10.2701 19.0156C10.3549 19.1005 10.4554 19.1429 10.5714 19.1429H17.4286C17.5446 19.1429 17.6451 19.1005 17.7299 19.0156C17.8147 18.9308 17.8571 18.8304 17.8571 18.7143ZM15.2857 7.35716C15.2857 7.2143 15.2143 7.14287 15.0714 7.14287H12.9286C12.7857 7.14287 12.7143 7.2143 12.7143 7.35716C12.7143 7.50002 12.7857 7.57145 12.9286 7.57145H15.0714C15.2143 7.57145 15.2857 7.50002 15.2857 7.35716ZM19.1429 7.14287V20.8572C19.1429 21.3214 18.9732 21.7232 18.6339 22.0625C18.2946 22.4018 17.8929 22.5714 17.4286 22.5714H10.5714C10.1071 22.5714 9.70536 22.4018 9.36608 22.0625C9.02679 21.7232 8.85715 21.3214 8.85715 20.8572V7.14287C8.85715 6.67859 9.02679 6.2768 9.36608 5.93752C9.70536 5.59823 10.1071 5.42859 10.5714 5.42859H17.4286C17.8929 5.42859 18.2946 5.59823 18.6339 5.93752C18.9732 6.2768 19.1429 6.67859 19.1429 7.14287Z" fill="white"/>
</svg>
