<svg width="19" height="19" viewBox="0 0 19 19" fill="none" xmlns="http://www.w3.org/2000/svg">
<path fill-rule="evenodd" clip-rule="evenodd" d="M3.95833 2.37496H15.0417V13.289L12.3122 16.625H3.95833V2.37496ZM2.375 2.37496C2.375 1.50052 3.08395 0.791626 3.95833 0.791626H15.0417C15.9161 0.791626 16.625 1.50052 16.625 2.37496V13.289C16.625 13.6544 16.4986 14.0087 16.2671 14.2916L13.5376 17.6276C13.2368 17.9952 12.7871 18.2083 12.3122 18.2083H3.95833C3.08395 18.2083 2.375 17.4994 2.375 16.625V2.37496ZM6.33333 4.74996H12.6667V7.91663H6.33333V4.74996ZM4.75 4.74996C4.75 3.87552 5.45895 3.16663 6.33333 3.16663H12.6667C13.5411 3.16663 14.25 3.87552 14.25 4.74996V7.91663C14.25 8.7911 13.5411 9.49996 12.6667 9.49996H6.33333C5.45895 9.49996 4.75 8.7911 4.75 7.91663V4.74996ZM7.52083 15.4375C7.08364 15.4375 6.72917 15.083 6.72917 14.6458V13.8541H5.9375C5.5003 13.8541 5.14583 13.4997 5.14583 13.0625C5.14583 12.6252 5.5003 12.2708 5.9375 12.2708H6.72917V11.4791C6.72917 11.0419 7.08364 10.6875 7.52083 10.6875C7.95799 10.6875 8.3125 11.0419 8.3125 11.4791V12.2708H9.10417C9.54133 12.2708 9.89583 12.6252 9.89583 13.0625C9.89583 13.4997 9.54133 13.8541 9.10417 13.8541H8.3125V14.6458C8.3125 15.083 7.95799 15.4375 7.52083 15.4375ZM14.25 11.875C14.25 12.3122 13.8955 12.6666 13.4583 12.6666C13.0212 12.6666 12.6667 12.3122 12.6667 11.875C12.6667 11.4377 13.0212 11.0833 13.4583 11.0833C13.8955 11.0833 14.25 11.4377 14.25 11.875ZM11.875 15.0416C12.3122 15.0416 12.6667 14.6872 12.6667 14.25C12.6667 13.8127 12.3122 13.4583 11.875 13.4583C11.4378 13.4583 11.0833 13.8127 11.0833 14.25C11.0833 14.6872 11.4378 15.0416 11.875 15.0416Z" fill="#2E95B4"/>
</svg>
