<svg width="19" height="19" viewBox="0 0 19 19" fill="none" xmlns="http://www.w3.org/2000/svg">
<path d="M13.4583 2.375H12.6667C12.1917 2.375 11.875 2.69167 11.875 3.16667C11.875 3.64167 12.1917 3.95833 12.6667 3.95833H13.4583C14.3292 3.95833 15.0417 4.67083 15.0417 5.54167V6.4125C15.0417 6.8875 15.3583 7.20417 15.8333 7.20417C16.3083 7.20417 16.625 6.8875 16.625 6.4125V5.54167C16.625 3.8 15.2 2.375 13.4583 2.375Z" fill="#C5C9D0"/>
<path d="M15.8333 11.875C15.3583 11.875 15.0417 12.1917 15.0417 12.6667V13.4583C15.0417 14.3292 14.3292 15.0417 13.4583 15.0417H12.6667C12.1917 15.0417 11.875 15.3583 11.875 15.8333C11.875 16.3083 12.1917 16.625 12.6667 16.625H13.4583C15.2 16.625 16.625 15.2 16.625 13.4583V12.6667C16.625 12.1917 16.3083 11.875 15.8333 11.875Z" fill="#C5C9D0"/>
<path d="M6.33333 15.0417H5.54167C4.67083 15.0417 3.95833 14.3292 3.95833 13.4583V12.6667C3.95833 12.1917 3.64167 11.875 3.16667 11.875C2.69167 11.875 2.375 12.1917 2.375 12.6667V13.4583C2.375 15.2 3.8 16.625 5.54167 16.625H6.33333C6.80833 16.625 7.125 16.3083 7.125 15.8333C7.125 15.3583 6.80833 15.0417 6.33333 15.0417Z" fill="#C5C9D0"/>
<path d="M3.16667 7.125C3.64167 7.125 3.95833 6.80833 3.95833 6.33333V5.54167C3.95833 4.67083 4.67083 3.95833 5.54167 3.95833H6.33333C6.80833 3.95833 7.125 3.64167 7.125 3.16667C7.125 2.69167 6.80833 2.375 6.33333 2.375H5.54167C3.8 2.375 2.375 3.8 2.375 5.54167V6.33333C2.375 6.72917 2.69167 7.125 3.16667 7.125Z" fill="#C5C9D0"/>
<path d="M15.8333 8.70837H3.16667C2.69167 8.70837 2.375 9.02504 2.375 9.50004C2.375 9.97504 2.69167 10.2917 3.16667 10.2917H15.8333C16.3083 10.2917 16.625 9.97504 16.625 9.50004C16.625 9.02504 16.3083 8.70837 15.8333 8.70837Z" fill="#C5C9D0"/>
</svg>
