<svg width="28" height="28" viewBox="0 0 28 28" fill="none" xmlns="http://www.w3.org/2000/svg">
<circle cx="14" cy="14" r="14" fill="#2E95B4"/>
<path d="M20.8462 8H8.15385C7.84783 8 7.55434 8.12291 7.33795 8.3417C7.12157 8.56049 7 8.85723 7 9.16665V18.4998C7 18.8092 7.12157 19.106 7.33795 19.3248C7.55434 19.5435 7.84783 19.6665 8.15385 19.6665L12.4447 19.6708L13.5106 21.4332C13.6128 21.6057 13.7575 21.7485 13.9304 21.8478C14.1034 21.9471 14.2988 21.9996 14.4977 22C14.6966 22.0004 14.8922 21.9489 15.0656 21.8503C15.239 21.7518 15.3842 21.6096 15.4873 21.4376L16.5575 19.6665H20.8462C21.1522 19.6665 21.4457 19.5435 21.662 19.3248C21.8784 19.106 22 18.8092 22 18.4998V9.16665C22 8.85723 21.8784 8.56049 21.662 8.3417C21.4457 8.12291 21.1522 8 20.8462 8ZM16.8077 15.5832H12.1923C12.0393 15.5832 11.8926 15.5217 11.7844 15.4123C11.6762 15.303 11.6154 15.1546 11.6154 14.9999C11.6154 14.8452 11.6762 14.6968 11.7844 14.5874C11.8926 14.478 12.0393 14.4166 12.1923 14.4166H16.8077C16.9607 14.4166 17.1074 14.478 17.2156 14.5874C17.3238 14.6968 17.3846 14.8452 17.3846 14.9999C17.3846 15.1546 17.3238 15.303 17.2156 15.4123C17.1074 15.5217 16.9607 15.5832 16.8077 15.5832ZM16.8077 13.2499H12.1923C12.0393 13.2499 11.8926 13.1885 11.7844 13.0791C11.6762 12.9697 11.6154 12.8213 11.6154 12.6666C11.6154 12.5119 11.6762 12.3635 11.7844 12.2541C11.8926 12.1447 12.0393 12.0833 12.1923 12.0833H16.8077C16.9607 12.0833 17.1074 12.1447 17.2156 12.2541C17.3238 12.3635 17.3846 12.5119 17.3846 12.6666C17.3846 12.8213 17.3238 12.9697 17.2156 13.0791C17.1074 13.1885 16.9607 13.2499 16.8077 13.2499Z" fill="white"/>
</svg>
