<svg width="28" height="28" viewBox="0 0 28 28" fill="none" xmlns="http://www.w3.org/2000/svg">
<circle cx="14" cy="14" r="14" fill="#2E95B4"/>
<path d="M19.9231 8H8.07694C7.79132 8 7.5174 8.11414 7.31544 8.3173C7.11348 8.52047 7.00002 8.79602 7.00002 9.08333V19.9167C6.99878 20.1232 7.05687 20.3258 7.16732 20.5C7.27777 20.6741 7.43587 20.8125 7.62261 20.8984C7.76492 20.9651 7.91996 20.9998 8.07694 21C8.32975 20.9994 8.57417 20.9087 8.76684 20.7441C8.77006 20.742 8.77299 20.7395 8.77559 20.7366L10.9375 18.8333H19.9231C20.2087 18.8333 20.4826 18.7192 20.6846 18.516C20.8865 18.3129 21 18.0373 21 17.75V9.08333C21 8.79602 20.8865 8.52047 20.6846 8.3173C20.4826 8.11414 20.2087 8 19.9231 8ZM16.1539 15.0417H11.8462C11.7034 15.0417 11.5664 14.9846 11.4654 14.883C11.3644 14.7814 11.3077 14.6437 11.3077 14.5C11.3077 14.3563 11.3644 14.2186 11.4654 14.117C11.5664 14.0154 11.7034 13.9583 11.8462 13.9583H16.1539C16.2967 13.9583 16.4336 14.0154 16.5346 14.117C16.6356 14.2186 16.6923 14.3563 16.6923 14.5C16.6923 14.6437 16.6356 14.7814 16.5346 14.883C16.4336 14.9846 16.2967 15.0417 16.1539 15.0417ZM16.1539 12.875H11.8462C11.7034 12.875 11.5664 12.8179 11.4654 12.7163C11.3644 12.6148 11.3077 12.477 11.3077 12.3333C11.3077 12.1897 11.3644 12.0519 11.4654 11.9503C11.5664 11.8487 11.7034 11.7917 11.8462 11.7917H16.1539C16.2967 11.7917 16.4336 11.8487 16.5346 11.9503C16.6356 12.0519 16.6923 12.1897 16.6923 12.3333C16.6923 12.477 16.6356 12.6148 16.5346 12.7163C16.4336 12.8179 16.2967 12.875 16.1539 12.875Z" fill="white"/>
</svg>
