<svg width="16" height="16" viewBox="0 0 16 16" fill="none" xmlns="http://www.w3.org/2000/svg">
<g clip-path="url(#clip0_300_4351)">
<path d="M8 0C3.58125 0 0 3.58125 0 8C0 12.4187 3.58125 16 8 16C12.4187 16 16 12.4187 16 8C16 3.58125 12.4187 0 8 0ZM8 4C9.24281 4 10.25 5.0075 10.25 6.25C10.25 7.4925 9.24375 8.5 8 8.5C6.7575 8.5 5.75 7.4925 5.75 6.25C5.75 5.0075 6.75625 4 8 4ZM8 14C6.34594 14 4.84688 13.3272 3.75938 12.2409C4.26562 10.9344 5.51562 10 7 10H9C10.4856 10 11.7356 10.9338 12.2406 12.2409C11.1531 13.3281 9.65312 14 8 14Z" fill="white"/>
</g>
<defs>
<clipPath id="clip0_300_4351">
<rect width="16" height="16" fill="white"/>
</clipPath>
</defs>
</svg>
