<svg width="15" height="15" viewBox="0 0 15 15" fill="none" xmlns="http://www.w3.org/2000/svg">
<g clip-path="url(#clip0_625_2721)">
<path d="M7.5 0C3.35742 0 0 3.35742 0 7.5C0 11.6426 3.35742 15 7.5 15C11.6426 15 15 11.6426 15 7.5C15 3.35742 11.6426 0 7.5 0ZM7.5 3.75C8.66514 3.75 9.60938 4.69453 9.60938 5.85938C9.60938 7.02422 8.66602 7.96875 7.5 7.96875C6.33516 7.96875 5.39062 7.02422 5.39062 5.85938C5.39062 4.69453 6.33398 3.75 7.5 3.75ZM7.5 13.125C5.94932 13.125 4.54395 12.4942 3.52441 11.4759C3.99902 10.251 5.1709 9.375 6.5625 9.375H8.4375C9.83027 9.375 11.0021 10.2504 11.4756 11.4759C10.4561 12.4951 9.0498 13.125 7.5 13.125Z" fill="#2E95B4"/>
</g>
<defs>
<clipPath id="clip0_625_2721">
<rect width="15" height="15" fill="white"/>
</clipPath>
</defs>
</svg>
