<svg width="10" height="10" viewBox="0 0 10 10" fill="none" xmlns="http://www.w3.org/2000/svg">
<g clip-path="url(#clip0_308_347)">
<path d="M8.54167 0.127075H1.45833C1.07274 0.130874 0.704007 0.28574 0.431336 0.558411C0.158664 0.831082 0.00379926 1.19981 0 1.58541L0 7.00208C0.0146785 7.40082 0.156177 7.78447 0.403916 8.09726C0.651656 8.41004 0.992718 8.63564 1.3775 8.74124L6.02708 9.83333C6.20404 9.87914 6.38903 9.88461 6.56839 9.84934C6.74775 9.81408 6.91689 9.73897 7.06333 9.62957C7.20495 9.51365 7.31799 9.36669 7.3937 9.20008C7.46942 9.03346 7.5058 8.85166 7.5 8.66874V4.63041C7.49933 4.24289 7.37198 3.86622 7.13735 3.5578C6.90273 3.24938 6.5737 3.02613 6.20042 2.92208L1.69 1.67833C1.65044 1.66738 1.61342 1.64875 1.58106 1.6235C1.5487 1.59825 1.52163 1.56688 1.50139 1.53117C1.48116 1.49545 1.46815 1.45611 1.46312 1.41537C1.4581 1.37463 1.46114 1.3333 1.47208 1.29374C1.48303 1.25418 1.50166 1.21716 1.5269 1.1848C1.55215 1.15244 1.58353 1.12537 1.61924 1.10513C1.65495 1.0849 1.6943 1.07189 1.73504 1.06687C1.77578 1.06184 1.81711 1.06488 1.85667 1.07583L3.32917 1.48208H3.33417H8.54167C8.62455 1.48208 8.70403 1.515 8.76264 1.5736C8.82124 1.63221 8.85417 1.7117 8.85417 1.79458C8.85417 1.87746 8.82124 1.95694 8.76264 2.01555C8.70403 2.07415 8.62455 2.10708 8.54167 2.10708H6.36042C6.33519 2.10702 6.3108 2.11612 6.29178 2.13269C6.27276 2.14926 6.2604 2.17216 6.25699 2.19716C6.25358 2.22215 6.25935 2.24753 6.27324 2.26859C6.28713 2.28965 6.30818 2.30495 6.3325 2.31166L6.36833 2.32166C6.843 2.45349 7.26515 2.72919 7.57667 3.11083C7.58656 3.12265 7.59893 3.13218 7.61289 3.13873C7.62685 3.14527 7.64208 3.14869 7.6575 3.14874H8.54167C8.62455 3.14874 8.70403 3.18167 8.76264 3.24027C8.82124 3.29888 8.85417 3.37836 8.85417 3.46124C8.85417 3.54412 8.82124 3.62361 8.76264 3.68221C8.70403 3.74082 8.62455 3.77374 8.54167 3.77374H8.10917C8.0927 3.77364 8.07645 3.77746 8.06175 3.78488C8.04705 3.79231 8.03433 3.80312 8.02464 3.81644C8.01495 3.82975 8.00857 3.84518 8.00603 3.86145C8.00348 3.87771 8.00484 3.89435 8.01 3.90999C8.0866 4.14278 8.12611 4.38617 8.12708 4.63124V7.52374C8.12708 7.55137 8.13806 7.57786 8.15759 7.5974C8.17713 7.61693 8.20362 7.62791 8.23125 7.62791H8.54167C8.92844 7.62791 9.29937 7.47426 9.57286 7.20077C9.84635 6.92728 10 6.55635 10 6.16958V1.58624C10.0001 1.39466 9.96247 1.20494 9.88923 1.02791C9.81599 0.850877 9.70859 0.690013 9.57316 0.554506C9.43773 0.418999 9.27693 0.311504 9.09994 0.238164C8.92295 0.164824 8.73325 0.127075 8.54167 0.127075ZM6.45833 6.37708C6.45833 6.54189 6.40946 6.70301 6.31789 6.84005C6.22632 6.97709 6.09617 7.0839 5.9439 7.14697C5.79163 7.21005 5.62408 7.22655 5.46242 7.1944C5.30077 7.16224 5.15229 7.08287 5.03574 6.96633C4.9192 6.84979 4.83983 6.7013 4.80768 6.53965C4.77552 6.378 4.79203 6.21044 4.8551 6.05817C4.91817 5.9059 5.02498 5.77575 5.16202 5.68418C5.29907 5.59262 5.46018 5.54374 5.625 5.54374C5.84601 5.54374 6.05797 5.63154 6.21426 5.78782C6.37054 5.9441 6.45833 6.15606 6.45833 6.37708Z" fill="#2E95B4"/>
</g>
<defs>
<clipPath id="clip0_308_347">
<rect width="10" height="10" fill="white"/>
</clipPath>
</defs>
</svg>
